<svg width="14" height="15" viewBox="0 0 14 15" fill="none" xmlns="http://www.w3.org/2000/svg">
<path d="M13.6111 0.449951H5.05557C4.84061 0.449951 4.66667 0.623894 4.66667 0.838852C4.66667 1.05381 4.84061 1.22775 5.05557 1.22775H12.6723L0.113941 13.7862C-0.0379804 13.9381 -0.0379804 14.1842 0.113941 14.3361C0.189884 14.412 0.289415 14.45 0.38891 14.45C0.488405 14.45 0.5879 14.412 0.663879 14.3361L13.2222 1.77765V9.39442C13.2222 9.60938 13.3961 9.78332 13.6111 9.78332C13.8261 9.78332 14 9.60938 14 9.39442V0.838852C14 0.623894 13.826 0.449951 13.6111 0.449951Z" fill="#050B20"/>
</svg>
