<svg width="19" height="19" viewBox="0 0 19 19" fill="none" xmlns="http://www.w3.org/2000/svg">
<g clip-path="url(#clip0_5_6190)">
<path d="M11.4291 3.83998C11.4291 3.67998 11.3791 3.54998 11.2791 3.44998C11.1791 3.34998 11.0491 3.29998 10.8891 3.29998H5.24906C5.08906 3.29998 4.95906 3.34998 4.85906 3.44998C4.75906 3.54998 4.70906 3.67998 4.70906 3.83998V8.33998C4.70906 8.49998 4.75906 8.63998 4.85906 8.75998C4.95906 8.87998 5.08906 8.93998 5.24906 8.93998H10.8891C11.0491 8.93998 11.1791 8.87998 11.2791 8.75998C11.3791 8.63998 11.4291 8.49998 11.4291 8.33998V3.83998ZM10.2891 7.79998H5.78906V4.43998H10.2891V7.79998ZM17.9091 4.43998L15.6291 3.35998C15.5091 3.27998 15.3691 3.25998 15.2091 3.29998C15.0491 3.33998 14.9391 3.42998 14.8791 3.56998C14.8191 3.70998 14.8091 3.85998 14.8491 4.01998C14.8891 4.17998 14.9891 4.27998 15.1491 4.31998L15.9891 4.79998L15.9291 4.97998C15.9291 5.33998 16.0391 5.65998 16.2591 5.93998C16.4791 6.21998 16.7491 6.41998 17.0691 6.53998V13.38C17.0691 13.54 17.0091 13.68 16.8891 13.8C16.7691 13.92 16.6391 13.98 16.4991 13.98C16.3591 13.98 16.2291 13.92 16.1091 13.8C15.9891 13.68 15.9291 13.54 15.9291 13.38V8.87998C15.9291 8.23998 15.6991 7.65998 15.2391 7.13998C14.7791 6.61998 14.2691 6.29998 13.7091 6.17998V2.69998C13.7091 2.09998 13.4891 1.57998 13.0491 1.13998C12.6091 0.699982 12.0891 0.47998 11.4891 0.47998H4.70906C4.10906 0.47998 3.57906 0.699982 3.11906 1.13998C2.65906 1.57998 2.42906 2.09998 2.42906 2.69998V15.3L1.64906 15.72C1.40906 15.84 1.28906 16 1.28906 16.2V17.88C1.28906 18.04 1.34906 18.18 1.46906 18.3C1.58906 18.42 1.72906 18.48 1.88906 18.48H14.2491C14.4091 18.48 14.5391 18.42 14.6391 18.3C14.7391 18.18 14.7891 18.04 14.7891 17.88V16.2C14.7891 16 14.6891 15.84 14.4891 15.72L13.7091 15.3V7.31998C13.9891 7.43998 14.2391 7.64998 14.4591 7.94998C14.6791 8.24998 14.7891 8.55998 14.7891 8.87998V13.38C14.7891 13.86 14.9591 14.27 15.2991 14.61C15.6391 14.95 16.0391 15.12 16.4991 15.12C16.9591 15.12 17.3591 14.95 17.6991 14.61C18.0391 14.27 18.2091 13.86 18.2091 13.38V4.97998C18.2091 4.73998 18.1091 4.55998 17.9091 4.43998ZM13.7091 17.34H2.42906V16.56L3.26906 16.14C3.46906 16.06 3.56906 15.9 3.56906 15.66V2.69998C3.56906 2.41998 3.67906 2.16998 3.89906 1.94998C4.11906 1.72998 4.38906 1.61998 4.70906 1.61998H11.4891C11.7691 1.61998 12.0191 1.72998 12.2391 1.94998C12.4591 2.16998 12.5691 2.41998 12.5691 2.69998V15.66C12.5691 15.9 12.6691 16.06 12.8691 16.14L13.7091 16.56V17.34Z" fill="#050B20"/>
</g>
<defs>
<clipPath id="clip0_5_6190">
<rect width="18" height="18" fill="white" transform="matrix(1 0 0 -1 0.75 18.48)"/>
</clipPath>
</defs>
</svg>
