<svg width="18" height="19" viewBox="0 0 18 19" fill="none" xmlns="http://www.w3.org/2000/svg">
<path d="M3.00094 2.15999C2.44094 2.15999 1.96094 2.35999 1.56094 2.75999C1.16094 3.15999 0.960938 3.64999 0.960938 4.22999C0.960938 4.80999 1.16094 5.29999 1.56094 5.69999C1.96094 6.09999 2.44094 6.29999 3.00094 6.29999C3.56094 6.29999 4.04094 6.09999 4.44094 5.69999C4.84094 5.29999 5.04094 4.80999 5.04094 4.22999C5.04094 3.64999 4.84094 3.15999 4.44094 2.75999C4.04094 2.35999 3.56094 2.15999 3.00094 2.15999ZM3.00094 3.29999C3.24094 3.29999 3.46094 3.38999 3.66094 3.56999C3.86094 3.74999 3.96094 3.96999 3.96094 4.22999C3.96094 4.48999 3.86094 4.70999 3.66094 4.88999C3.46094 5.06999 3.24094 5.15999 3.00094 5.15999C2.76094 5.15999 2.54094 5.06999 2.34094 4.88999C2.14094 4.70999 2.04094 4.48999 2.04094 4.22999C2.04094 3.96999 2.14094 3.74999 2.34094 3.56999C2.54094 3.38999 2.76094 3.29999 3.00094 3.29999ZM3.00094 12.66C2.44094 12.66 1.96094 12.86 1.56094 13.26C1.16094 13.66 0.960938 14.15 0.960938 14.73C0.960938 15.31 1.16094 15.8 1.56094 16.2C1.96094 16.6 2.44094 16.8 3.00094 16.8C3.56094 16.8 4.04094 16.6 4.44094 16.2C4.84094 15.8 5.04094 15.31 5.04094 14.73C5.04094 14.15 4.84094 13.66 4.44094 13.26C4.04094 12.86 3.56094 12.66 3.00094 12.66ZM3.00094 13.8C3.24094 13.8 3.46094 13.89 3.66094 14.07C3.86094 14.25 3.96094 14.47 3.96094 14.73C3.96094 14.99 3.86094 15.21 3.66094 15.39C3.46094 15.57 3.24094 15.66 3.00094 15.66C2.76094 15.66 2.54094 15.57 2.34094 15.39C2.14094 15.21 2.04094 14.99 2.04094 14.73C2.04094 14.47 2.14094 14.25 2.34094 14.07C2.54094 13.89 2.76094 13.8 3.00094 13.8ZM9.00094 2.15999C8.44094 2.15999 7.96094 2.35999 7.56094 2.75999C7.16094 3.15999 6.96094 3.64999 6.96094 4.22999C6.96094 4.80999 7.16094 5.29999 7.56094 5.69999C7.96094 6.09999 8.44094 6.29999 9.00094 6.29999C9.56094 6.29999 10.0409 6.09999 10.4409 5.69999C10.8409 5.29999 11.0409 4.80999 11.0409 4.22999C11.0409 3.64999 10.8409 3.15999 10.4409 2.75999C10.0409 2.35999 9.56094 2.15999 9.00094 2.15999ZM9.00094 3.29999C9.24094 3.29999 9.46094 3.38999 9.66094 3.56999C9.86094 3.74999 9.96094 3.96999 9.96094 4.22999C9.96094 4.48999 9.86094 4.70999 9.66094 4.88999C9.46094 5.06999 9.24094 5.15999 9.00094 5.15999C8.76094 5.15999 8.54094 5.06999 8.34094 4.88999C8.14094 4.70999 8.04094 4.48999 8.04094 4.22999C8.04094 3.96999 8.14094 3.74999 8.34094 3.56999C8.54094 3.38999 8.76094 3.29999 9.00094 3.29999ZM9.00094 12.66C8.44094 12.66 7.96094 12.86 7.56094 13.26C7.16094 13.66 6.96094 14.15 6.96094 14.73C6.96094 15.31 7.16094 15.8 7.56094 16.2C7.96094 16.6 8.44094 16.8 9.00094 16.8C9.56094 16.8 10.0409 16.6 10.4409 16.2C10.8409 15.8 11.0409 15.31 11.0409 14.73C11.0409 14.15 10.8409 13.66 10.4409 13.26C10.0409 12.86 9.56094 12.66 9.00094 12.66ZM9.00094 13.8C9.24094 13.8 9.46094 13.89 9.66094 14.07C9.86094 14.25 9.96094 14.47 9.96094 14.73C9.96094 14.99 9.86094 15.21 9.66094 15.39C9.46094 15.57 9.24094 15.66 9.00094 15.66C8.76094 15.66 8.54094 15.57 8.34094 15.39C8.14094 15.21 8.04094 14.99 8.04094 14.73C8.04094 14.47 8.14094 14.25 8.34094 14.07C8.54094 13.89 8.76094 13.8 9.00094 13.8ZM15.0009 2.15999C14.4409 2.15999 13.9609 2.35999 13.5609 2.75999C13.1609 3.15999 12.9609 3.64999 12.9609 4.22999C12.9609 4.80999 13.1609 5.29999 13.5609 5.69999C13.9609 6.09999 14.4409 6.29999 15.0009 6.29999C15.5609 6.29999 16.0409 6.09999 16.4409 5.69999C16.8409 5.29999 17.0409 4.80999 17.0409 4.22999C17.0409 3.64999 16.8409 3.15999 16.4409 2.75999C16.0409 2.35999 15.5609 2.15999 15.0009 2.15999ZM15.0009 3.29999C15.2409 3.29999 15.4609 3.38999 15.6609 3.56999C15.8609 3.74999 15.9609 3.96999 15.9609 4.22999C15.9609 4.48999 15.8609 4.70999 15.6609 4.88999C15.4609 5.06999 15.2409 5.15999 15.0009 5.15999C14.7609 5.15999 14.5409 5.06999 14.3409 4.88999C14.1409 4.70999 14.0409 4.48999 14.0409 4.22999C14.0409 3.96999 14.1409 3.74999 14.3409 3.56999C14.5409 3.38999 14.7609 3.29999 15.0009 3.29999ZM15.0009 12.66C14.4409 12.66 13.9609 12.86 13.5609 13.26C13.1609 13.66 12.9609 14.15 12.9609 14.73C12.9609 15.31 13.1609 15.8 13.5609 16.2C13.9609 16.6 14.4409 16.8 15.0009 16.8C15.5609 16.8 16.0409 16.6 16.4409 16.2C16.8409 15.8 17.0409 15.31 17.0409 14.73C17.0409 14.15 16.8409 13.66 16.4409 13.26C16.0409 12.86 15.5609 12.66 15.0009 12.66ZM15.0009 13.8C15.2409 13.8 15.4609 13.89 15.6609 14.07C15.8609 14.25 15.9609 14.47 15.9609 14.73C15.9609 14.99 15.8609 15.21 15.6609 15.39C15.4609 15.57 15.2409 15.66 15.0009 15.66C14.7609 15.66 14.5409 15.57 14.3409 15.39C14.1409 15.21 14.0409 14.99 14.0409 14.73C14.0409 14.47 14.1409 14.25 14.3409 14.07C14.5409 13.89 14.7609 13.8 15.0009 13.8ZM2.46094 5.69999V13.2C2.46094 13.36 2.51094 13.5 2.61094 13.62C2.71094 13.74 2.84094 13.8 3.00094 13.8C3.16094 13.8 3.29094 13.74 3.39094 13.62C3.49094 13.5 3.54094 13.38 3.54094 13.26V5.69999C3.54094 5.57999 3.49094 5.45999 3.39094 5.33999C3.29094 5.21999 3.16094 5.15999 3.00094 5.15999C2.84094 5.15999 2.71094 5.21999 2.61094 5.33999C2.51094 5.45999 2.46094 5.57999 2.46094 5.69999ZM8.46094 5.69999V13.2C8.46094 13.36 8.51094 13.5 8.61094 13.62C8.71094 13.74 8.84094 13.8 9.00094 13.8C9.16094 13.8 9.29094 13.74 9.39094 13.62C9.49094 13.5 9.54094 13.38 9.54094 13.26V5.69999C9.54094 5.57999 9.49094 5.45999 9.39094 5.33999C9.29094 5.21999 9.16094 5.15999 9.00094 5.15999C8.84094 5.15999 8.71094 5.21999 8.61094 5.33999C8.51094 5.45999 8.46094 5.57999 8.46094 5.69999ZM14.4609 5.69999V8.69999C14.4609 8.77999 14.4409 8.83999 14.4009 8.87999C14.3609 8.91999 14.3209 8.93999 14.2809 8.93999H3.00094C2.84094 8.93999 2.71094 8.98999 2.61094 9.08999C2.51094 9.18999 2.46094 9.31999 2.46094 9.47999C2.46094 9.63999 2.51094 9.76999 2.61094 9.86999C2.71094 9.96999 2.84094 10.02 3.00094 10.02H14.2809C14.6409 10.02 14.9409 9.89999 15.1809 9.65999C15.4209 9.41999 15.5409 9.09999 15.5409 8.69999V5.75999C15.5409 5.59999 15.4909 5.45999 15.3909 5.33999C15.2909 5.21999 15.1609 5.15999 15.0009 5.15999C14.8409 5.15999 14.7109 5.21999 14.6109 5.33999C14.5109 5.45999 14.4609 5.57999 14.4609 5.69999Z" fill="#050B20"/>
</svg>
