<svg width="23" height="19" viewBox="0 0 23 19" fill="none" xmlns="http://www.w3.org/2000/svg">
<path d="M18.8938 0.793945H3.72722C2.0838 0.793945 0.748047 2.12969 0.748047 3.77311V14.6064C0.748047 16.2498 2.0838 17.5856 3.72722 17.5856H18.8938C20.5373 17.5856 21.873 16.2498 21.873 14.6064V3.77311C21.873 2.12969 20.5373 0.793945 18.8938 0.793945ZM18.8938 2.41894C18.9188 2.41894 18.9404 2.43194 18.9643 2.43303L12.123 7.56478C11.6442 7.92336 10.9758 7.92336 10.498 7.56478L3.6568 2.43303C3.68172 2.43194 3.7023 2.41894 3.72722 2.41894H18.8938ZM20.248 14.6064C20.248 15.3528 19.6403 15.9606 18.8938 15.9606H3.72722C2.9808 15.9606 2.37305 15.3528 2.37305 14.6064V3.77311C2.37305 3.68969 2.40663 3.61711 2.42072 3.53803L9.52305 8.86478C10.0495 9.25911 10.68 9.45628 11.3105 9.45628C11.941 9.45628 12.5726 9.25911 13.098 8.86478L20.2003 3.53803C20.2144 3.61711 20.248 3.68969 20.248 3.77311V14.6064Z" fill="#050B20"/>
</svg>
