<svg width="37" height="27" viewBox="0 0 37 27" fill="none" xmlns="http://www.w3.org/2000/svg">
<path d="M9.1 26.55C6.76667 26.55 4.66667 25.6167 2.8 23.75C0.933334 21.8167 0 18.9833 0 15.25C0 10.9833 1.13333 7.51666 3.4 4.85C5.73333 2.11667 9.03333 0.75 13.3 0.75C14.8333 0.75 16.0333 0.849998 16.9 1.05V5.65C15.9667 5.51666 14.7667 5.45 13.3 5.45C11.0333 5.45 9.2 6.21666 7.8 7.75C6.46667 9.08333 5.7 10.85 5.5 13.05C6.36667 11.9833 7.76667 11.45 9.7 11.45C11.7 11.45 13.4 12.15 14.8 13.55C16.2 14.8833 16.9 16.65 16.9 18.85C16.9 21.1167 16.1667 22.9833 14.7 24.45C13.2333 25.85 11.3667 26.55 9.1 26.55ZM29 26.55C26.6667 26.55 24.5667 25.6167 22.7 23.75C20.8333 21.8167 19.9 18.9833 19.9 15.25C19.9 10.9833 21.0333 7.51666 23.3 4.85C25.6333 2.11667 28.9333 0.75 33.2 0.75C34.7333 0.75 35.9333 0.849998 36.8 1.05V5.65C35.8667 5.51666 34.6667 5.45 33.2 5.45C30.9333 5.45 29.1 6.21666 27.7 7.75C26.3667 9.08333 25.6 10.85 25.4 13.05C26.2667 11.9833 27.6667 11.45 29.6 11.45C31.6 11.45 33.3 12.15 34.7 13.55C36.1 14.8833 36.8 16.65 36.8 18.85C36.8 21.1167 36.0667 22.9833 34.6 24.45C33.1333 25.85 31.2667 26.55 29 26.55Z" fill="#405FF2"/>
</svg>
