<svg width="61" height="61" viewBox="0 0 61 61" fill="none" xmlns="http://www.w3.org/2000/svg">
<path d="M24.0465 4.7832C20.3452 4.7832 16.9904 6.9609 15.4836 10.3415L9.38656 24.0207C5.73148 24.2719 2.84375 27.3144 2.84375 31.0332V36.4239C2.84375 39.6599 5.46711 42.2832 8.70312 42.2832H10.3092C10.3179 41.8323 10.3293 41.3815 10.3438 40.9306C9.9623 40.1531 9.74727 39.2791 9.74727 38.3546L9.64062 34.1973C9.64062 31.1228 10.2662 29.9395 12.5483 29.4798C13.6331 29.2612 14.5413 28.5221 14.9858 27.5087L22.5148 10.3415C24.0215 6.9609 27.3764 4.7832 31.0777 4.7832H24.0465Z" fill="#EEF1FB"/>
<path d="M8.70312 42.2832C5.46711 42.2832 2.84375 39.6599 2.84375 36.4239V31.0332C2.84375 27.3144 5.73148 24.2719 9.38656 24.0207L15.4836 10.3415C16.9903 6.9609 20.3451 4.7832 24.0465 4.7832H34.7217C38.2441 4.7832 41.4692 6.75758 43.0711 9.89469L46.0859 15.7989M58.1562 31.0332C58.1562 27.15 55.0082 24.002 51.125 24.002H19.1328M28.7422 15.7989V4.90039M32.9609 42.2832H27.6873M21.242 37.5957C18.6532 37.5957 16.5545 39.6944 16.5545 42.2832C16.5545 44.872 18.6532 46.9707 21.242 46.9707C23.8307 46.9707 25.9295 44.872 25.9295 42.2832C25.9295 39.6944 23.8309 37.5957 21.242 37.5957Z" stroke="#405FF2" stroke-width="3" stroke-miterlimit="10" stroke-linecap="round" stroke-linejoin="round"/>
<path d="M58.1562 41.9317C58.1562 46.4298 54.5097 50.1348 50.0117 50.1348C45.5136 50.1348 41.8671 46.4884 41.8671 41.9903C41.8671 37.4921 45.5722 33.8457 50.0703 33.8457M44.0351 48.4356L36.5938 55.877" stroke="#FF5CF3" stroke-width="3" stroke-miterlimit="10" stroke-linecap="round" stroke-linejoin="round"/>
</svg>
