<?xml version="1.0" encoding="UTF-8"?>
<svg id="Layer_1" xmlns="http://www.w3.org/2000/svg" viewBox="0 0 1920 1920">
  <defs>
    <style>
      .cls-1 {
        fill: #010101;
      }

      .cls-2 {
        fill: #fff;
      }

      .cls-3 {
        fill: #fef200;
      }

      .cls-4 {
        opacity: .75;
      }
    </style>
  </defs>
  <rect class="cls-1" width="1920" height="1920"/>
  <rect class="cls-1" x="507" y="1243" width="92" height="18"/>
  <g>
    <g class="cls-4">
      <path class="cls-2" d="M636.6,1261.8h4.4l12.15,22.45,11.85-22.45h4.4v35h-4.65v-26.1l-9.2,17.2c-.4.73-.78,1.25-1.15,1.55-.33.3-.73.45-1.2.45h-1.35l-10.55-19.2v26.1h-4.7v-35ZM731.83,1287.6h-14.6l-3.4,9.2h-4.95l13.55-35h2.15c1.43,0,2.45.78,3.05,2.35l12.55,32.65h-4.9l-3.45-9.2ZM718.63,1283.6h11.8l-5.85-15.8h-.05l-5.9,15.8ZM783.2,1296.8c-1.17,0-2.1-.33-2.8-1-.67-.67-1-1.58-1-2.75v-31.25h15.25c2.53,0,4.75.48,6.65,1.45,1.93.97,3.42,2.35,4.45,4.15,1.07,1.77,1.6,3.8,1.6,6.1v10.6c0,4.17-1.07,7.33-3.2,9.5-2.1,2.13-5.2,3.2-9.3,3.2h-11.65ZM794.7,1292.55c2.6,0,4.57-.72,5.9-2.15,1.33-1.43,2-3.57,2-6.4v-10.4c0-2.27-.75-4.08-2.25-5.45-1.47-1.4-3.42-2.1-5.85-2.1h-10.35v26.5h10.55ZM852.33,1296.8c-1.17,0-2.1-.33-2.8-1-.67-.67-1-1.58-1-2.75v-31.25h24.55v4.15h-19.8v10.9h18.3v4.1h-18.3v11.7h19.8v4.15h-20.75ZM962.93,1261.8h4.75v35h-4.75v-35ZM1010.57,1261.8h4.4l18.5,27.35v-27.35h4.65v35h-4.35l-18.55-27.25v27.25h-4.65v-35ZM1140.1,1297.2c-2.26,0-4.26-.48-6-1.45-1.7-1-3.01-2.4-3.95-4.2-.93-1.8-1.4-3.87-1.4-6.2v-23.55h4.75v23.55c0,2.27.6,4.1,1.8,5.5,1.24,1.4,2.84,2.1,4.8,2.1h5.35c1.97,0,3.55-.7,4.75-2.1,1.24-1.4,1.85-3.23,1.85-5.5v-23.55h4.75v23.55c0,2.33-.46,4.4-1.4,6.2-.93,1.8-2.26,3.2-4,4.2-1.7.97-3.68,1.45-5.95,1.45h-5.35ZM1208.46,1297.2c-3.23,0-5.81-.97-7.75-2.9-1.93-1.93-2.9-4.53-2.9-7.8h4.65c0,1.97.55,3.53,1.65,4.7,1.14,1.17,2.62,1.75,4.45,1.75h5.55c1.84,0,3.3-.38,4.4-1.15,1.1-.8,1.65-1.85,1.65-3.15v-2.7c0-1.03-.4-1.9-1.2-2.6-.76-.7-1.86-1.17-3.3-1.4l-9.1-1.5c-2.66-.43-4.73-1.35-6.2-2.75-1.43-1.4-2.15-3.15-2.15-5.25v-2.75c0-2.5.95-4.5,2.85-6,1.94-1.53,4.47-2.3,7.6-2.3h5.65c1.97,0,3.7.42,5.2,1.25,1.54.8,2.72,1.95,3.55,3.45.84,1.47,1.25,3.17,1.25,5.1h-4.7c0-1.67-.48-3-1.45-4-.96-1.03-2.25-1.55-3.85-1.55h-5.65c-1.7,0-3.08.38-4.15,1.15-1.03.73-1.55,1.75-1.55,3.05v2.25c0,1.07.37,1.95,1.1,2.65.77.7,1.85,1.18,3.25,1.45l9,1.55c2.77.47,4.89,1.38,6.35,2.75,1.5,1.33,2.25,3.02,2.25,5.05v3.25c0,2.53-.98,4.57-2.95,6.1-1.93,1.53-4.51,2.3-7.75,2.3h-5.75ZM1285.02,1287.6h-14.6l-3.4,9.2h-4.95l13.55-35h2.15c1.43,0,2.45.78,3.05,2.35l12.55,32.65h-4.9l-3.45-9.2ZM1271.82,1283.6h11.8l-5.85-15.8h-.05l-5.9,15.8Z"/>
    </g>
    <g>
      <polygon class="cls-3" points="669.04 1022.8 726.78 1022.8 950.61 622.8 669.04 1022.8"/>
      <polygon class="cls-3" points="744.31 1022.8 809.79 1022.8 955.67 622.8 744.31 1022.8"/>
      <polygon class="cls-3" points="986.53 622.8 1210.37 1022.8 1268.11 1022.8 986.53 622.8"/>
      <polygon class="cls-3" points="1020.15 867.23 917.01 867.23 960.06 622.8 827.23 1022.8 889.62 1022.8 905.92 930.21 1031.24 930.21 1047.55 1022.8 1109.94 1022.8 977.1 622.8 1020.15 867.23"/>
      <polygon class="cls-3" points="1127.38 1022.8 1192.86 1022.8 981.5 622.8 1127.38 1022.8"/>
    </g>
    <g>
      <path class="cls-2" d="M616.44,1126.04c-5.52-3-11.88-4.5-19.08-4.5h-11.34c-3.72,0-7.56,1.02-11.52,3.06-3.84,2.04-7.02,4.74-9.54,8.1v-9.72h-22.68v104.82h24.48v-22.2c2.52,2.64,5.52,4.74,9,6.3,3.6,1.56,7.08,2.34,10.44,2.34h11.7c7.08,0,13.32-1.56,18.72-4.68,5.4-3.12,9.6-7.5,12.6-13.14,3-5.76,4.5-12.36,4.5-19.8v-20.16c0-6.84-1.5-12.9-4.5-18.18s-7.26-9.36-12.78-12.24ZM609.24,1174.82c0,5.52-1.32,9.96-3.96,13.32-2.64,3.36-6.18,5.04-10.62,5.04h-11.16c-4.44,0-8.22-1.62-11.34-4.86-3-3.24-4.8-7.5-5.4-12.78v-17.82c1.44-4.44,3.72-8.04,6.84-10.8,3.12-2.88,6.42-4.32,9.9-4.32h10.98c4.44,0,7.98,1.44,10.62,4.32,2.76,2.88,4.14,6.66,4.14,11.34v16.56Z"/>
      <path class="cls-2" d="M726.52,1130c-6.48-5.64-15-8.46-25.56-8.46h-15.48c-10.44,0-18.9,2.7-25.38,8.1-6.36,5.28-9.54,12.3-9.54,21.06h23.76c0-2.64,1.02-4.74,3.06-6.3,2.04-1.56,4.74-2.34,8.1-2.34h15.48c3.24,0,5.82.96,7.74,2.88,2.04,1.8,3.06,4.2,3.06,7.2v9.36c-3-1.44-6.3-2.58-9.9-3.42-3.6-.84-6.96-1.26-10.08-1.26h-10.98c-9.84,0-17.76,2.34-23.76,7.02-6,4.56-9,10.62-9,18.18v6.66c0,7.68,2.88,13.86,8.64,18.54,5.76,4.68,13.32,7.02,22.68,7.02h11.16c4.08,0,8.22-1.08,12.42-3.24,4.2-2.28,7.74-5.28,10.62-9v10.8h22.68v-60.66c0-9.24-3.24-16.62-9.72-22.14ZM711.76,1182.92c-1.56,3.84-4.08,6.9-7.56,9.18-3.48,2.28-7.44,3.42-11.88,3.42h-9.72c-3.24,0-5.88-.72-7.92-2.16-1.92-1.44-2.88-3.3-2.88-5.58v-4.68c0-2.4.9-4.32,2.7-5.76,1.8-1.44,4.14-2.16,7.02-2.16h11.34c3.84,0,7.44.42,10.8,1.26,3.48.84,6.18,1.98,8.1,3.42v3.06Z"/>
      <path class="cls-2" d="M470.52,1086.8h-11.16l-49.32,126h25.92l11.16-29.34h47.16l10.98,29.34h25.92l-44.82-115.2c-2.76-7.2-8.04-10.8-15.84-10.8ZM453.78,1162.58l16.92-45.36h.18l16.74,45.36h-33.84Z"/>
      <path class="cls-2" d="M1505.1,1138.82c-3.24-5.52-7.8-9.78-13.68-12.78-5.76-3-12.42-4.5-19.98-4.5h-16.2c-7.56,0-14.28,1.5-20.16,4.5-5.76,3-10.26,7.26-13.5,12.78-3.24,5.4-4.86,11.64-4.86,18.72v21.06c0,7.08,1.56,13.32,4.68,18.72,3.24,5.4,7.74,9.6,13.5,12.6,5.88,2.88,12.6,4.32,20.16,4.32h16.2c7.68,0,14.4-1.44,20.16-4.32,5.88-3,10.44-7.2,13.68-12.6,3.24-5.4,4.86-11.64,4.86-18.72v-21.06c0-7.08-1.62-13.32-4.86-18.72ZM1485.48,1176.62c0,4.92-1.32,8.94-3.96,12.06-2.64,3-6.18,4.5-10.62,4.5h-15.48c-4.2,0-7.62-1.5-10.26-4.5-2.64-3.12-3.96-7.14-3.96-12.06v-17.46c0-4.92,1.32-8.88,3.96-11.88,2.64-3.12,6.12-4.68,10.44-4.68h15.48c4.32,0,7.8,1.56,10.44,4.68,2.64,3,3.96,6.96,3.96,11.88v17.46Z"/>
      <path class="cls-2" d="M1382.42,1095.8h-23.76v27.18h-16.56v20.88h15.84v39.42c0,10.08,2.46,17.52,7.38,22.32,4.92,4.8,12.66,7.2,23.22,7.2h17.28v-20.88h-15.48c-2.76,0-4.8-.78-6.12-2.34-1.2-1.56-1.8-4.02-1.8-7.38v-38.34h23.4v-20.88h-23.4v-27.18Z"/>
      <path class="cls-2" d="M1304,1175c-1.32,5.4-3.6,9.78-6.84,13.14-3.24,3.24-6.84,4.86-10.8,4.86h-10.44c-3.24,0-5.88-1.2-7.92-3.6-1.92-2.52-2.88-5.76-2.88-9.72v-56.7h-24.48v56.34c0,10.44,2.88,18.9,8.64,25.38,5.76,6.36,13.38,9.54,22.86,9.54h11.88c3.72,0,7.56-1.2,11.52-3.6,4.08-2.4,7.5-5.52,10.26-9.36v11.52h22.68v-89.82h-24.48v52.02Z"/>
      <path class="cls-2" d="M1042.08,1131.26c-6.96-6.48-16.2-9.72-27.72-9.72h-14.4c-7.56,0-14.28,1.5-20.16,4.5-5.76,3-10.26,7.2-13.5,12.6s-4.86,11.64-4.86,18.72v23.22c0,6.6,1.62,12.48,4.86,17.64,3.24,5.04,7.74,9,13.5,11.88,5.88,2.76,12.6,4.14,20.16,4.14h13.68c7.56,0,14.22-1.26,19.98-3.78,5.88-2.52,10.44-6.12,13.68-10.8,3.24-4.68,4.86-10.02,4.86-16.02h-24.12c0,3-1.32,5.46-3.96,7.38-2.52,1.8-5.88,2.7-10.08,2.7h-14.04c-4.32,0-7.74-1.2-10.26-3.6-2.52-2.4-3.78-5.58-3.78-9.54v-4.32h66.6v-19.08c0-10.8-3.48-19.44-10.44-25.92ZM1028.4,1158.62h-42.84v-.54c0-4.92,1.32-8.88,3.96-11.88,2.64-3,6.12-4.5,10.44-4.5h14.58c4.2,0,7.56,1.44,10.08,4.32,2.52,2.76,3.78,6.48,3.78,11.16v1.44Z"/>
      <path class="cls-2" d="M913.46,1121.54h-11.16c-3.6,0-7.38.96-11.34,2.88-3.84,1.92-7.08,4.44-9.72,7.56v-45.18h-24.48v126h24.48v-53.46c1.08-4.92,3.24-8.88,6.48-11.88,3.36-3.12,7.14-4.68,11.34-4.68h11.16c3.12,0,5.64,1.14,7.56,3.42,2.04,2.28,3.06,5.28,3.06,9v57.6h24.48v-58.5c0-9.84-2.94-17.76-8.82-23.76-5.76-6-13.44-9-23.04-9Z"/>
      <path class="cls-2" d="M1171.72,1086.8h-11.16l-49.32,126h25.92l11.16-29.34h47.16l10.98,29.34h25.92l-44.82-115.2c-2.76-7.2-8.04-10.8-15.84-10.8ZM1154.98,1162.58l16.92-45.36h.18l16.74,45.36h-33.84Z"/>
      <path class="cls-2" d="M814.17,1189.04c-2.28,2.76-5.34,4.14-9.18,4.14h-13.86c-4.2,0-7.62-1.5-10.26-4.5-2.64-3.12-3.96-7.14-3.96-12.06v-17.46c0-4.92,1.26-8.88,3.78-11.88,2.64-3.12,6.06-4.68,10.26-4.68h13.86c3.6,0,6.48,1.26,8.64,3.78,2.28,2.4,3.42,5.64,3.42,9.72h24.3c0-6.84-1.5-12.84-4.5-18-3-5.28-7.26-9.36-12.78-12.24-5.52-2.88-11.88-4.32-19.08-4.32h-14.22c-7.56,0-14.22,1.5-19.98,4.5s-10.26,7.2-13.5,12.6c-3.12,5.4-4.68,11.64-4.68,18.72v21.06c0,7.08,1.56,13.32,4.68,18.72,3.24,5.4,7.74,9.6,13.5,12.6,5.88,3,12.6,4.5,20.16,4.5h14.22c11.16,0,20.1-3.3,26.82-9.9,6.84-6.6,10.26-15.36,10.26-26.28h-24.3c0,4.56-1.2,8.22-3.6,10.98Z"/>
    </g>
  </g>
</svg>