<svg width="12" height="17" viewBox="0 0 12 17" fill="none" xmlns="http://www.w3.org/2000/svg">
<path d="M9.49349 0.0952148H2.82683C1.56266 0.0952148 0.535156 1.12271 0.535156 2.38688V14.0535C0.535156 15.3177 1.56266 16.3452 2.82683 16.3452H9.49349C10.7577 16.3452 11.7852 15.3177 11.7852 14.0535V2.38688C11.7852 1.12271 10.7577 0.0952148 9.49349 0.0952148ZM10.5352 14.0535C10.5352 14.6277 10.0677 15.0952 9.49349 15.0952H2.82683C2.25266 15.0952 1.78516 14.6277 1.78516 14.0535V2.38688C1.78516 1.81271 2.25266 1.34521 2.82683 1.34521H9.49349C10.0677 1.34521 10.5352 1.81271 10.5352 2.38688V14.0535ZM7.61849 3.22021C7.61849 3.56521 7.33849 3.84521 6.99349 3.84521H5.32683C4.98183 3.84521 4.70183 3.56521 4.70183 3.22021C4.70183 2.87521 4.98183 2.59521 5.32683 2.59521H6.99349C7.33849 2.59521 7.61849 2.87521 7.61849 3.22021Z" fill="#050B20"/>
</svg>
