<svg width="26" height="26" viewBox="0 0 26 26" fill="none" xmlns="http://www.w3.org/2000/svg">
<mask id="mask0_5_4086" style="mask-type:luminance" maskUnits="userSpaceOnUse" x="0" y="0" width="26" height="26">
<path d="M25.429 0.341309H0.171875V25.5985H25.429V0.341309Z" fill="white"/>
</mask>
<g mask="url(#mask0_5_4086)">
<path d="M21.8291 9.96802H19.8154C19.1425 8.98002 18.2472 8.15411 17.2042 7.56508C16.0362 6.90547 14.7099 6.55688 13.3687 6.55688H12.8004C12.3882 6.55688 12.0541 6.89102 12.0541 7.3032V9.96802H3.77183C1.95336 9.96802 0.446468 11.3237 0.206175 13.0772C0.203478 13.0941 0.201165 13.111 0.199624 13.1284C0.182088 13.2728 0.171875 13.4192 0.171875 13.5681V16.4218C0.171875 16.8339 0.506011 17.1681 0.918186 17.1681H3.52943C3.86144 18.4507 5.0286 19.4005 6.41352 19.4005C7.79842 19.4005 8.9656 18.4507 9.29758 17.1681H16.3033C16.6355 18.4507 17.8025 19.4005 19.1874 19.4005C20.5723 19.4005 21.7392 18.4507 22.0715 17.1681H24.6827C25.0949 17.1681 25.429 16.8339 25.429 16.4218V13.5681C25.429 11.583 23.814 9.96802 21.8291 9.96802ZM13.5468 8.05219C15.1962 8.09943 16.7608 8.80292 17.8956 9.96802H13.5468V8.05219ZM1.66451 13.9385H2.81722C3.22939 13.9385 3.56353 13.6044 3.56353 13.1922C3.56353 12.78 3.22939 12.4459 2.81722 12.4459H1.98958C2.36322 11.8545 3.02225 11.4608 3.77183 11.4608H12.0541V15.6755H9.29758C8.96537 14.3929 7.79842 13.4429 6.41352 13.4429C5.0286 13.4429 3.86163 14.3929 3.52943 15.6755H1.66451V13.9385ZM7.8996 16.4218C7.8996 17.2413 7.23303 17.9079 6.41352 17.9079C5.59397 17.9079 4.92744 17.2413 4.92744 16.4218C4.92744 15.6023 5.59397 14.9357 6.41352 14.9357C7.23303 14.9357 7.8996 15.6023 7.8996 16.4218ZM20.6735 16.4218C20.6735 17.2413 20.0069 17.9079 19.1874 17.9079C18.3679 17.9079 17.7013 17.2413 17.7013 16.4218C17.7013 15.6023 18.3679 14.9357 19.1874 14.9357C20.0069 14.9357 20.6735 15.6023 20.6735 16.4218ZM22.0715 15.6755C21.7395 14.3929 20.5723 13.4429 19.1874 13.4429C17.8025 13.4429 16.6353 14.3929 16.3033 15.6755H13.5468V11.4608H21.8291C22.5654 11.4608 23.2146 11.8408 23.5915 12.4147H22.4364C22.0243 12.4147 21.6901 12.7488 21.6901 13.161C21.6901 13.5732 22.0243 13.9075 22.4364 13.9075H23.9364V15.6755H22.0715Z" fill="#050B20"/>
</g>
</svg>
