<svg width="27" height="35" viewBox="0 0 27 35" fill="none" xmlns="http://www.w3.org/2000/svg">
<path d="M24.0138 17.0113L20.7744 15.7161L18.8918 11.3229C18.5067 10.4251 17.6276 9.84497 16.651 9.84497H9.19871C8.11647 9.84497 7.15204 10.5722 6.85466 11.613L5.73503 15.5325H3.91016C3.01397 15.5325 2.28516 16.2613 2.28516 17.1575V22.0325C2.28516 22.9286 3.01397 23.6575 3.91016 23.6575H5.65054C6.01372 25.055 7.27554 26.095 8.78516 26.095C10.2948 26.095 11.5566 25.055 11.9198 23.6575H15.4006C15.7637 25.055 17.0256 26.095 18.5352 26.095C20.0448 26.095 21.3066 25.055 21.6698 23.6575H23.4102C24.3063 23.6575 25.0352 22.9286 25.0352 22.0325V18.52C25.0352 17.8514 24.6346 17.259 24.0138 17.0113ZM8.78516 24.47C7.88897 24.47 7.16016 23.7411 7.16016 22.845C7.16016 21.9488 7.88897 21.22 8.78516 21.22C9.68132 21.22 10.4102 21.9488 10.4102 22.845C10.4102 23.7411 9.68132 24.47 8.78516 24.47ZM18.5352 24.47C17.639 24.47 16.9102 23.7411 16.9102 22.845C16.9102 21.9488 17.639 21.22 18.5352 21.22C19.4313 21.22 20.1602 21.9488 20.1602 22.845C20.1602 23.7411 19.4313 24.47 18.5352 24.47ZM23.4102 22.0325H21.6698C21.3066 20.635 20.0448 19.595 18.5352 19.595C17.0256 19.595 15.7637 20.635 15.4006 22.0325H11.9198C11.5566 20.635 10.2948 19.595 8.78516 19.595C7.27554 19.595 6.01372 20.635 5.65054 22.0325H3.91016V17.1575H6.34766C6.71004 17.1575 7.02935 16.917 7.12847 16.5684L8.41626 12.0598C8.51621 11.7121 8.83716 11.47 9.19871 11.47H16.651C16.976 11.47 17.2693 11.6633 17.3977 11.9623L19.4127 16.6651C19.4972 16.8634 19.6572 17.0194 19.8571 17.0998L23.4102 18.52V22.0325Z" fill="#050B20"/>
<path d="M12.3969 19.4586C12.024 19.21 11.9233 18.7054 12.1719 18.3316L12.9543 17.1576H12.0354C11.7356 17.1576 11.4602 16.9926 11.3188 16.7286C11.1774 16.4645 11.1928 16.1436 11.3594 15.895L12.9844 13.4575C13.233 13.0838 13.7376 12.983 14.1113 13.2324C14.4843 13.481 14.585 13.9856 14.3364 14.3594L13.5539 15.5326H14.4729C14.7727 15.5326 15.0482 15.6975 15.1895 15.9616C15.3309 16.2256 15.3154 16.5466 15.1489 16.7953L13.5239 19.2328C13.2744 19.6073 12.7691 19.7073 12.3969 19.4586Z" fill="#050B20"/>
</svg>
