<svg width="26" height="27" viewBox="0 0 26 27" fill="none" xmlns="http://www.w3.org/2000/svg">
<mask id="mask0_5_4065" style="mask-type:luminance" maskUnits="userSpaceOnUse" x="0" y="0" width="26" height="27">
<path d="M26 0.969971H0V26.97H26V0.969971Z" fill="white"/>
</mask>
<g mask="url(#mask0_5_4065)">
<path d="M25.1522 17.3612H24.3043V13.1222C24.3043 11.7196 23.1633 10.5787 21.7609 10.5787H18.9807L17.8648 7.2308C17.5179 6.1906 16.5482 5.4917 15.4517 5.4917C15.3197 5.4917 6.15383 5.4917 5.93475 5.4917C4.82945 5.4917 3.8871 6.20055 3.53712 7.18733H2.54348C1.141 7.18733 0 8.32834 0 9.73078V13.1222C0 14.5246 1.141 15.6656 2.54348 15.6656H3.39133V17.3612H2.54348C2.07527 17.3612 1.69564 17.7408 1.69564 18.2091C1.69564 18.6774 2.07523 19.057 2.54348 19.057C3.3375 19.057 4.29031 19.057 5.08696 19.057C5.08696 20.9269 6.60831 22.4483 8.47829 22.4483C10.3482 22.4483 11.8696 20.9269 11.8696 19.057H15.8261C15.8261 20.9269 17.3475 22.4483 19.2174 22.4483C21.0875 22.4483 22.6088 20.9269 22.6088 19.057C23.4057 19.057 24.3588 19.057 25.1522 19.057C25.6205 19.057 26.0001 18.6774 26.0001 18.2091C26.0001 17.7408 25.6204 17.3612 25.1522 17.3612ZM3.39133 13.9699H2.54348C2.07599 13.9699 1.69564 13.5896 1.69564 13.1221V9.73078C1.69564 9.26324 2.07599 8.88295 2.54348 8.88295H3.39133C3.39133 9.42314 3.39133 13.4461 3.39133 13.9699ZM11.8695 7.18733H13.2826H15.4517C15.8173 7.18733 16.1405 7.42032 16.256 7.767L17.1932 10.5786H11.8695V7.18733ZM5.08696 8.03513C5.08696 7.56763 5.46731 7.18728 5.93481 7.18728H10.174V10.5786H5.08696V8.03513ZM8.47829 20.7526C7.5433 20.7526 6.78265 19.9919 6.78265 19.0569C6.78265 18.1219 7.5433 17.3612 8.47829 17.3612C9.4133 17.3612 10.174 18.1219 10.174 19.0569C10.174 19.9919 9.4133 20.7526 8.47829 20.7526ZM19.2174 20.7526C18.2824 20.7526 17.5218 19.9919 17.5218 19.0569C17.5218 18.1219 18.2824 17.3612 19.2174 17.3612C20.1524 17.3612 20.913 18.1219 20.913 19.0569C20.913 19.9919 20.1524 20.7526 19.2174 20.7526ZM22.6087 17.3612H22.1525C21.5651 16.3486 20.4699 15.6656 19.2174 15.6656C17.9649 15.6656 16.8697 16.3486 16.2823 17.3612H11.4133C10.826 16.3486 9.73073 15.6656 8.47829 15.6656C7.22581 15.6656 6.13056 16.3486 5.54323 17.3612H5.08701V14.8178V12.2743C6.46958 12.2743 20.8531 12.2743 21.7609 12.2743C22.2284 12.2743 22.6088 12.6546 22.6088 13.1222L22.6087 17.3612Z" fill="#050B20"/>
<path d="M14.4146 13.97H12.7189C12.2507 13.97 11.8711 14.3496 11.8711 14.8178C11.8711 15.286 12.2507 15.6656 12.7189 15.6656H14.4146C14.8827 15.6656 15.2624 15.2861 15.2624 14.8178C15.2624 14.3496 14.8828 13.97 14.4146 13.97Z" fill="#050B20"/>
</g>
</svg>
