<svg width="150" height="150" viewBox="0 0 150 150" fill="none" xmlns="http://www.w3.org/2000/svg">
<g clip-path="url(#clip0_1_72)">
<path d="M150 0H0V150H150V0Z" fill="#010101"/>
<g opacity="0.75">
<path d="M49.7344 98.5781H50.0781L51.0273 100.332L51.9531 98.5781H52.2969V101.313H51.9336V99.2734L51.2148 100.617C51.1836 100.674 51.1539 100.715 51.125 100.738C51.0992 100.762 51.068 100.773 51.0313 100.773H50.9258L50.1016 99.2734V101.313H49.7344V98.5781ZM57.1742 100.594H56.0336L55.768 101.313H55.3813L56.4398 98.5781H56.6078C56.7195 98.5781 56.7992 98.6391 56.8461 98.7617L57.8266 101.313H57.4438L57.1742 100.594ZM56.143 100.281H57.0648L56.6078 99.0469H56.6039L56.143 100.281ZM61.1875 101.313C61.0961 101.313 61.0234 101.287 60.9688 101.234C60.9164 101.182 60.8906 101.111 60.8906 101.02V98.5781H62.082C62.2797 98.5781 62.4531 98.6156 62.6016 98.6914C62.7523 98.7672 62.8688 98.875 62.9492 99.0156C63.0328 99.1539 63.0742 99.3125 63.0742 99.4922V100.32C63.0742 100.646 62.9906 100.893 62.8242 101.062C62.6602 101.229 62.418 101.313 62.0977 101.313H61.1875ZM62.0859 100.98C62.2891 100.98 62.443 100.924 62.5469 100.812C62.6508 100.701 62.7031 100.534 62.7031 100.312V99.5C62.7031 99.3227 62.6445 99.1813 62.5273 99.0742C62.4125 98.9648 62.2602 98.9102 62.0703 98.9102H61.2617V100.98H62.0859ZM66.5883 101.313C66.4969 101.313 66.4242 101.287 66.3695 101.234C66.3172 101.182 66.2914 101.111 66.2914 101.02V98.5781H68.2094V98.9023H66.6625V99.7539H68.0922V100.074H66.6625V100.988H68.2094V101.313H66.5883ZM75.2289 98.5781H75.6V101.313H75.2289V98.5781ZM78.9508 98.5781H79.2945L80.7398 100.715V98.5781H81.1031V101.313H80.7633L79.3141 99.1836V101.313H78.9508V98.5781ZM89.0703 101.344C88.8938 101.344 88.7375 101.306 88.6016 101.23C88.4687 101.152 88.3664 101.043 88.293 100.902C88.2203 100.762 88.1836 100.6 88.1836 100.418V98.5781H88.5547V100.418C88.5547 100.595 88.6016 100.738 88.6953 100.848C88.7922 100.957 88.9172 101.012 89.0703 101.012H89.4883C89.6422 101.012 89.7656 100.957 89.8594 100.848C89.9562 100.738 90.0039 100.595 90.0039 100.418V98.5781H90.375V100.418C90.375 100.6 90.3391 100.762 90.2656 100.902C90.193 101.043 90.0891 101.152 89.9531 101.23C89.8203 101.306 89.6656 101.344 89.4883 101.344H89.0703ZM94.4109 101.344C94.1586 101.344 93.957 101.268 93.8055 101.117C93.6547 100.966 93.5789 100.763 93.5789 100.508H93.9422C93.9422 100.662 93.9852 100.784 94.0711 100.875C94.1602 100.966 94.2758 101.012 94.4188 101.012H94.8523C94.9961 101.012 95.1102 100.982 95.1961 100.922C95.282 100.859 95.325 100.777 95.325 100.676V100.465C95.325 100.384 95.2937 100.316 95.2312 100.262C95.1719 100.207 95.0859 100.17 94.9734 100.152L94.2625 100.035C94.0547 100.002 93.893 99.9297 93.7781 99.8203C93.6664 99.7109 93.6102 99.5742 93.6102 99.4102V99.1953C93.6102 99 93.6844 98.8437 93.8328 98.7266C93.9844 98.607 94.182 98.5469 94.4266 98.5469H94.868C95.0219 98.5469 95.157 98.5797 95.2742 98.6445C95.3945 98.707 95.4867 98.7969 95.5516 98.9141C95.6172 99.0289 95.6492 99.1617 95.6492 99.3125H95.282C95.282 99.182 95.2445 99.0781 95.1688 99C95.0938 98.9195 94.993 98.8789 94.868 98.8789H94.4266C94.2938 98.8789 94.1859 98.9086 94.1023 98.9688C94.0219 99.0258 93.9812 99.1055 93.9812 99.207V99.3828C93.9812 99.4664 94.0102 99.5352 94.0672 99.5898C94.1274 99.6445 94.2117 99.682 94.3211 99.7031L95.0242 99.8242C95.2406 99.8609 95.4063 99.932 95.5203 100.039C95.6375 100.143 95.6961 100.275 95.6961 100.434V100.688C95.6961 100.885 95.6195 101.045 95.4656 101.164C95.3148 101.284 95.1133 101.344 94.8602 101.344H94.4109ZM100.392 100.594H99.2516L98.9859 101.313H98.5992L99.6578 98.5781H99.8258C99.9375 98.5781 100.017 98.6391 100.064 98.7617L101.045 101.313H100.662L100.392 100.594ZM99.3609 100.281H100.283L99.8258 99.0469H99.8219L99.3609 100.281Z" fill="white"/>
</g>
<path d="M52.2688 79.9062H56.7797L74.2665 48.6562L52.2688 79.9062Z" fill="#FEF200"/>
<path d="M58.1493 79.9062H63.2649L74.6618 48.6562L58.1493 79.9062Z" fill="#FEF200"/>
<path d="M77.0728 48.6562L94.5603 79.9062H99.0712L77.0728 48.6562Z" fill="#FEF200"/>
<path d="M79.6993 67.7523H71.6415L75.0048 48.6562L64.6274 79.9062H69.5017L70.7751 72.6727H80.5657L81.8399 79.9062H86.7142L76.336 48.6562L79.6993 67.7523Z" fill="#FEF200"/>
<path d="M88.0766 79.9062H93.1922L76.6797 48.6562L88.0766 79.9062Z" fill="#FEF200"/>
<path d="M48.1595 87.9719C47.7282 87.7375 47.2313 87.6203 46.6688 87.6203H45.7829C45.4923 87.6203 45.1923 87.7 44.8829 87.8594C44.5829 88.0187 44.3345 88.2297 44.1376 88.4922V87.7328H42.3657V95.9219H44.2782V94.1875C44.4751 94.3937 44.7095 94.5578 44.9813 94.6797C45.2626 94.8016 45.5345 94.8625 45.797 94.8625H46.711C47.2642 94.8625 47.7517 94.7406 48.1735 94.4969C48.5954 94.2531 48.9235 93.9109 49.1579 93.4703C49.3923 93.0203 49.5095 92.5047 49.5095 91.9234V90.3484C49.5095 89.8141 49.3923 89.3406 49.1579 88.9281C48.9235 88.5156 48.5907 88.1969 48.1595 87.9719ZM47.597 91.7828C47.597 92.2141 47.4938 92.5609 47.2876 92.8234C47.0813 93.0859 46.8048 93.2172 46.4579 93.2172H45.586C45.2392 93.2172 44.9438 93.0906 44.7001 92.8375C44.4657 92.5844 44.3251 92.2516 44.2782 91.8391V90.4469C44.3907 90.1 44.5688 89.8188 44.8126 89.6031C45.0563 89.3781 45.3142 89.2656 45.586 89.2656H46.4438C46.7907 89.2656 47.0673 89.3781 47.2735 89.6031C47.4892 89.8281 47.597 90.1234 47.597 90.4891V91.7828Z" fill="white"/>
<path d="M56.7594 88.2812C56.2532 87.8406 55.5876 87.6203 54.7626 87.6203H53.5532C52.7375 87.6203 52.0766 87.8313 51.5704 88.2531C51.0735 88.6656 50.8251 89.2141 50.8251 89.8984H52.6813C52.6813 89.6922 52.761 89.5281 52.9204 89.4063C53.0797 89.2844 53.2907 89.2234 53.5532 89.2234H54.7626C55.0157 89.2234 55.2172 89.2984 55.3672 89.4484C55.5266 89.5891 55.6063 89.7766 55.6063 90.0109V90.7422C55.3719 90.6297 55.1141 90.5406 54.8329 90.475C54.5516 90.4094 54.2891 90.3766 54.0454 90.3766H53.1875C52.4188 90.3766 51.8 90.5594 51.3313 90.925C50.8625 91.2812 50.6282 91.7547 50.6282 92.3453V92.8656C50.6282 93.4656 50.8532 93.9484 51.3032 94.3141C51.7532 94.6797 52.3438 94.8625 53.075 94.8625H53.9469C54.2657 94.8625 54.5891 94.7781 54.9172 94.6094C55.2454 94.4313 55.5219 94.1969 55.7469 93.9062V94.75H57.5188V90.0109C57.5188 89.2891 57.2657 88.7125 56.7594 88.2812ZM55.6063 92.4156C55.4844 92.7156 55.2876 92.9547 55.0157 93.1328C54.7438 93.3109 54.4344 93.4 54.0876 93.4H53.3282C53.075 93.4 52.8688 93.3437 52.7094 93.2312C52.5594 93.1187 52.4844 92.9734 52.4844 92.7953V92.4297C52.4844 92.2422 52.5547 92.0922 52.6954 91.9797C52.836 91.8672 53.0188 91.8109 53.2438 91.8109H54.1297C54.4297 91.8109 54.711 91.8437 54.9735 91.9094C55.2454 91.975 55.4563 92.0641 55.6063 92.1766V92.4156Z" fill="white"/>
<path d="M36.7594 84.9062H35.8875L32.0344 94.75H34.0594L34.9313 92.4578H38.6157L39.4735 94.75H41.4985L37.9969 85.75C37.7813 85.1875 37.3688 84.9062 36.7594 84.9062ZM35.4516 90.8266L36.7735 87.2828H36.7875L38.0954 90.8266H35.4516Z" fill="white"/>
<path d="M117.586 88.9703C117.333 88.5391 116.977 88.2063 116.517 87.9719C116.067 87.7375 115.547 87.6203 114.956 87.6203H113.691C113.1 87.6203 112.575 87.7375 112.116 87.9719C111.666 88.2063 111.314 88.5391 111.061 88.9703C110.808 89.3922 110.681 89.8797 110.681 90.4328V92.0781C110.681 92.6312 110.803 93.1187 111.047 93.5406C111.3 93.9625 111.652 94.2906 112.102 94.525C112.561 94.75 113.086 94.8625 113.677 94.8625H114.942C115.542 94.8625 116.067 94.75 116.517 94.525C116.977 94.2906 117.333 93.9625 117.586 93.5406C117.839 93.1187 117.966 92.6312 117.966 92.0781V90.4328C117.966 89.8797 117.839 89.3922 117.586 88.9703ZM116.053 91.9234C116.053 92.3078 115.95 92.6219 115.744 92.8656C115.538 93.1 115.261 93.2172 114.914 93.2172H113.705C113.377 93.2172 113.109 93.1 112.903 92.8656C112.697 92.6219 112.594 92.3078 112.594 91.9234V90.5594C112.594 90.175 112.697 89.8656 112.903 89.6313C113.109 89.3875 113.381 89.2656 113.719 89.2656H114.928C115.266 89.2656 115.538 89.3875 115.744 89.6313C115.95 89.8656 116.053 90.175 116.053 90.5594V91.9234Z" fill="white"/>
<path d="M108.002 85.6094H106.145V87.7328H104.852V89.3641H106.089V92.4437C106.089 93.2312 106.281 93.8125 106.666 94.1875C107.05 94.5625 107.655 94.75 108.48 94.75H109.83V93.1187H108.62C108.405 93.1187 108.245 93.0578 108.142 92.9359C108.048 92.8141 108.002 92.6219 108.002 92.3594V89.3641H109.83V87.7328H108.002V85.6094Z" fill="white"/>
<path d="M101.875 91.7969C101.772 92.2187 101.594 92.5609 101.341 92.8234C101.088 93.0766 100.806 93.2031 100.497 93.2031H99.6813C99.4282 93.2031 99.2219 93.1094 99.0625 92.9219C98.9125 92.725 98.8375 92.4719 98.8375 92.1625V87.7328H96.925V92.1344C96.925 92.95 97.15 93.6109 97.6 94.1172C98.05 94.6141 98.6454 94.8625 99.386 94.8625H100.314C100.605 94.8625 100.905 94.7687 101.214 94.5812C101.533 94.3937 101.8 94.15 102.016 93.85V94.75H103.788V87.7328H101.875V91.7969Z" fill="white"/>
<path d="M81.4125 88.3797C80.8688 87.8734 80.1469 87.6203 79.2469 87.6203H78.1219C77.5313 87.6203 77.0063 87.7375 76.5469 87.9719C76.0969 88.2063 75.7454 88.5344 75.4922 88.9563C75.2391 89.3781 75.1125 89.8656 75.1125 90.4187V92.2328C75.1125 92.7484 75.2391 93.2078 75.4922 93.6109C75.7454 94.0047 76.0969 94.3141 76.5469 94.5391C77.0063 94.7547 77.5313 94.8625 78.1219 94.8625H79.1907C79.7813 94.8625 80.3016 94.7641 80.7516 94.5672C81.211 94.3703 81.5672 94.0891 81.8204 93.7234C82.0735 93.3578 82.2001 92.9406 82.2001 92.4719H80.3157C80.3157 92.7063 80.2125 92.8984 80.0063 93.0484C79.8094 93.1891 79.5469 93.2594 79.2188 93.2594H78.1219C77.7844 93.2594 77.5172 93.1656 77.3204 92.9781C77.1235 92.7906 77.025 92.5422 77.025 92.2328V91.8953H82.2282V90.4047C82.2282 89.5609 81.9563 88.8859 81.4125 88.3797ZM80.3438 90.5172H76.9969V90.475C76.9969 90.0906 77.1001 89.7812 77.3063 89.5469C77.5126 89.3125 77.7844 89.1953 78.1219 89.1953H79.261C79.5891 89.1953 79.8516 89.3078 80.0485 89.5328C80.2454 89.7484 80.3438 90.0391 80.3438 90.4047V90.5172Z" fill="white"/>
<path d="M71.3641 87.6203H70.4923C70.211 87.6203 69.9157 87.6953 69.6063 87.8453C69.3063 87.9953 69.0532 88.1922 68.8469 88.4359V84.9062H66.9344V94.75H68.8469V90.5734C68.9313 90.1891 69.1001 89.8797 69.3532 89.6453C69.6157 89.4016 69.911 89.2797 70.2391 89.2797H71.111C71.3548 89.2797 71.5516 89.3687 71.7016 89.5469C71.861 89.725 71.9407 89.9594 71.9407 90.25V94.75H73.8532V90.1797C73.8532 89.4109 73.6235 88.7922 73.1641 88.3234C72.7141 87.8547 72.1141 87.6203 71.3641 87.6203Z" fill="white"/>
<path d="M91.5407 84.9062H90.6688L86.8157 94.75H88.8407L89.7125 92.4578H93.3969L94.2547 94.75H96.2797L92.7782 85.75C92.5626 85.1875 92.15 84.9062 91.5407 84.9062ZM90.2329 90.8266L91.5547 87.2828H91.5688L92.8766 90.8266H90.2329Z" fill="white"/>
<path d="M63.6071 92.8938C63.429 93.1094 63.1899 93.2172 62.8899 93.2172H61.8071C61.479 93.2172 61.2118 93.1 61.0056 92.8656C60.7993 92.6219 60.6962 92.3078 60.6962 91.9234V90.5594C60.6962 90.175 60.7946 89.8656 60.9915 89.6313C61.1978 89.3875 61.4649 89.2656 61.7931 89.2656H62.8759C63.1571 89.2656 63.3821 89.3641 63.5509 89.5609C63.729 89.7484 63.8181 90.0016 63.8181 90.3203H65.7165C65.7165 89.7859 65.5993 89.3172 65.3649 88.9141C65.1306 88.5016 64.7978 88.1828 64.3665 87.9578C63.9353 87.7328 63.4384 87.6203 62.8759 87.6203H61.7649C61.1743 87.6203 60.654 87.7375 60.204 87.9719C59.754 88.2063 59.4024 88.5344 59.1493 88.9563C58.9056 89.3781 58.7837 89.8656 58.7837 90.4187V92.0641C58.7837 92.6172 58.9056 93.1047 59.1493 93.5266C59.4024 93.9484 59.754 94.2766 60.204 94.5109C60.6634 94.7453 61.1884 94.8625 61.779 94.8625H62.8899C63.7618 94.8625 64.4603 94.6047 64.9853 94.0891C65.5196 93.5734 65.7868 92.8891 65.7868 92.0359H63.8884C63.8884 92.3922 63.7946 92.6781 63.6071 92.8938Z" fill="white"/>
</g>
<defs>
<clipPath id="clip0_1_72">
<rect width="150" height="150" fill="white"/>
</clipPath>
</defs>
</svg>
