<svg width="258" height="160" viewBox="0 0 258 160" fill="none" xmlns="http://www.w3.org/2000/svg">
<g opacity="0.75">
<path d="M53.2031 150.734H54.2344L57.082 155.996L59.8594 150.734H60.8906V158.938H59.8008V152.82L57.6445 156.852C57.5508 157.023 57.4617 157.145 57.375 157.215C57.2977 157.285 57.2039 157.32 57.0938 157.32H56.7773L54.3047 152.82V158.938H53.2031V150.734ZM75.5227 156.781H72.1008L71.3039 158.938H70.1438L73.3195 150.734H73.8234C74.1586 150.734 74.3977 150.917 74.5383 151.285L77.4797 158.938H76.3313L75.5227 156.781ZM72.4289 155.844H75.1945L73.8234 152.141H73.8117L72.4289 155.844ZM87.5625 158.938C87.2883 158.938 87.0703 158.86 86.9063 158.703C86.7492 158.546 86.6719 158.333 86.6719 158.059V150.734H90.2461C90.8391 150.734 91.3594 150.847 91.8047 151.074C92.257 151.302 92.6063 151.625 92.8477 152.047C93.0984 152.462 93.2227 152.937 93.2227 153.477V155.961C93.2227 156.938 92.9719 157.679 92.4727 158.187C91.9805 158.687 91.2539 158.938 90.293 158.938H87.5625ZM90.2578 157.941C90.8672 157.941 91.3289 157.773 91.6406 157.438C91.9523 157.102 92.1094 156.601 92.1094 155.937V153.5C92.1094 152.968 91.9336 152.544 91.582 152.223C91.2375 151.895 90.7805 151.73 90.2109 151.73H87.7852V157.941H90.2578ZM103.765 158.938C103.491 158.938 103.273 158.86 103.109 158.703C102.952 158.546 102.874 158.333 102.874 158.059V150.734H108.628V151.707H103.988V154.262H108.277V155.223H103.988V157.965H108.628V158.938H103.765ZM129.687 150.734H130.8V158.938H129.687V150.734ZM140.852 150.734H141.884L146.22 157.145V150.734H147.309V158.938H146.29L141.942 152.551V158.938H140.852V150.734ZM171.211 159.031C170.681 159.031 170.212 158.919 169.805 158.691C169.406 158.457 169.099 158.129 168.879 157.707C168.661 157.285 168.551 156.8 168.551 156.254V150.734H169.664V156.254C169.664 156.786 169.805 157.215 170.086 157.543C170.377 157.871 170.752 158.035 171.211 158.035H172.465C172.927 158.035 173.297 157.871 173.578 157.543C173.869 157.215 174.012 156.786 174.012 156.254V150.734H175.125V156.254C175.125 156.8 175.017 157.285 174.797 157.707C174.579 158.129 174.267 158.457 173.859 158.691C173.461 158.919 172.997 159.031 172.465 159.031H171.211ZM187.233 159.031C186.476 159.031 185.871 158.804 185.416 158.352C184.964 157.899 184.737 157.29 184.737 156.523H185.827C185.827 156.985 185.955 157.351 186.213 157.625C186.48 157.899 186.827 158.035 187.256 158.035H188.557C188.988 158.035 189.33 157.946 189.588 157.766C189.846 157.578 189.975 157.332 189.975 157.027V156.395C189.975 156.153 189.881 155.949 189.694 155.785C189.516 155.621 189.258 155.511 188.92 155.457L186.788 155.105C186.164 155.005 185.679 154.789 185.334 154.461C184.999 154.133 184.83 153.723 184.83 153.23V152.586C184.83 152 185.053 151.531 185.498 151.18C185.953 150.821 186.546 150.641 187.28 150.641H188.604C189.066 150.641 189.471 150.739 189.823 150.934C190.184 151.121 190.46 151.391 190.655 151.742C190.852 152.087 190.948 152.485 190.948 152.937H189.846C189.846 152.546 189.734 152.234 189.506 152C189.281 151.759 188.979 151.637 188.604 151.637H187.28C186.881 151.637 186.558 151.726 186.307 151.906C186.066 152.077 185.944 152.316 185.944 152.621V153.148C185.944 153.399 186.03 153.605 186.202 153.77C186.382 153.934 186.635 154.046 186.963 154.109L189.073 154.473C189.722 154.583 190.219 154.796 190.561 155.117C190.913 155.429 191.088 155.825 191.088 156.301V157.063C191.088 157.655 190.859 158.134 190.397 158.492C189.945 158.851 189.34 159.031 188.58 159.031H187.233ZM205.177 156.781H201.755L200.958 158.938H199.798L202.973 150.734H203.477C203.813 150.734 204.052 150.917 204.192 151.285L207.134 158.938H205.985L205.177 156.781ZM202.083 155.844H204.848L203.477 152.141H203.466L202.083 155.844Z" fill="#050B20"/>
</g>
<path d="M60.8063 94.7188H74.3391L126.799 0.96875L60.8063 94.7188Z" fill="#FEF200"/>
<path d="M78.4477 94.7188H93.7946L127.985 0.96875L78.4477 94.7188Z" fill="#FEF200"/>
<path d="M135.218 0.96875L187.681 94.7188H201.213L135.218 0.96875Z" fill="#FEF200"/>
<path d="M143.098 58.257H118.924L129.014 0.96875L97.8821 94.7188H112.505L116.325 73.018H145.697L149.52 94.7188H164.142L133.008 0.96875L143.098 58.257Z" fill="#FEF200"/>
<path d="M168.23 94.7188H183.577L134.039 0.96875L168.23 94.7188Z" fill="#FEF200"/>
<path d="M48.4782 118.916C47.1844 118.213 45.6938 117.861 44.0063 117.861H41.3485C40.4766 117.861 39.5766 118.1 38.6485 118.578C37.7485 119.056 37.0032 119.689 36.4125 120.477V118.198H31.0969V142.766H36.8344V137.563C37.425 138.181 38.1282 138.673 38.9438 139.039C39.7875 139.405 40.6032 139.588 41.3907 139.588H44.1329C45.7922 139.588 47.2547 139.222 48.5204 138.491C49.786 137.759 50.7703 136.733 51.4735 135.411C52.1766 134.061 52.5282 132.514 52.5282 130.77V126.045C52.5282 124.442 52.1766 123.022 51.4735 121.784C50.7703 120.547 49.7719 119.591 48.4782 118.916ZM46.7907 130.348C46.7907 131.642 46.4813 132.683 45.8625 133.47C45.2438 134.258 44.4141 134.652 43.3735 134.652H40.7579C39.7172 134.652 38.8313 134.272 38.1 133.513C37.3969 132.753 36.975 131.755 36.8344 130.517V126.341C37.1719 125.3 37.7063 124.456 38.4375 123.809C39.1688 123.134 39.9422 122.797 40.7579 122.797H43.3313C44.3719 122.797 45.2016 123.134 45.8203 123.809C46.4672 124.484 46.7907 125.37 46.7907 126.467V130.348Z" fill="#050B20"/>
<path d="M74.2782 119.844C72.7594 118.522 70.7625 117.861 68.2875 117.861H64.6594C62.2125 117.861 60.2297 118.494 58.711 119.759C57.2203 120.997 56.475 122.642 56.475 124.695H62.0438C62.0438 124.077 62.2828 123.584 62.761 123.219C63.2391 122.853 63.8719 122.67 64.6594 122.67H68.2875C69.0469 122.67 69.6516 122.895 70.1016 123.345C70.5797 123.767 70.8188 124.33 70.8188 125.033V127.227C70.1157 126.889 69.3422 126.622 68.4985 126.425C67.6547 126.228 66.8672 126.13 66.136 126.13H63.5625C61.2563 126.13 59.4 126.678 57.9938 127.775C56.5875 128.844 55.8844 130.264 55.8844 132.036V133.597C55.8844 135.397 56.5594 136.845 57.9094 137.942C59.2594 139.039 61.0313 139.588 63.225 139.588H65.8407C66.7969 139.588 67.7672 139.334 68.7516 138.828C69.736 138.294 70.5657 137.591 71.2407 136.719V139.25H76.5563V125.033C76.5563 122.867 75.7969 121.138 74.2782 119.844ZM70.8188 132.247C70.4532 133.147 69.8625 133.864 69.0469 134.398C68.2313 134.933 67.3032 135.2 66.2625 135.2H63.9844C63.225 135.2 62.6063 135.031 62.1282 134.694C61.6782 134.356 61.4532 133.92 61.4532 133.386V132.289C61.4532 131.727 61.6641 131.277 62.086 130.939C62.5078 130.602 63.0563 130.433 63.7313 130.433H66.3891C67.2891 130.433 68.1328 130.531 68.9203 130.728C69.736 130.925 70.3688 131.192 70.8188 131.53V132.247Z" fill="#050B20"/>
<path d="M14.2781 109.719H11.6625L0.103149 139.25H6.17815L8.79377 132.373H19.8469L22.4203 139.25H28.4953L17.9906 112.25C17.3438 110.562 16.1063 109.719 14.2781 109.719ZM10.3547 127.48L14.3203 116.848H14.3625L18.286 127.48H10.3547Z" fill="#050B20"/>
<path d="M256.758 121.911C255.998 120.617 254.93 119.619 253.552 118.916C252.202 118.213 250.641 117.861 248.869 117.861H245.072C243.3 117.861 241.725 118.213 240.347 118.916C238.997 119.619 237.942 120.617 237.183 121.911C236.423 123.177 236.044 124.639 236.044 126.298V131.234C236.044 132.894 236.409 134.356 237.141 135.622C237.9 136.888 238.955 137.872 240.305 138.575C241.683 139.25 243.258 139.588 245.03 139.588H248.827C250.627 139.588 252.202 139.25 253.552 138.575C254.93 137.872 255.998 136.888 256.758 135.622C257.517 134.356 257.897 132.894 257.897 131.234V126.298C257.897 124.639 257.517 123.177 256.758 121.911ZM252.159 130.77C252.159 131.923 251.85 132.866 251.231 133.597C250.613 134.3 249.783 134.652 248.742 134.652H245.114C244.13 134.652 243.328 134.3 242.709 133.597C242.091 132.866 241.781 131.923 241.781 130.77V126.678C241.781 125.525 242.091 124.597 242.709 123.894C243.328 123.163 244.144 122.797 245.156 122.797H248.784C249.797 122.797 250.613 123.163 251.231 123.894C251.85 124.597 252.159 125.525 252.159 126.678V130.77Z" fill="#050B20"/>
<path d="M228.005 111.828H222.436V118.198H218.555V123.092H222.267V132.331C222.267 134.694 222.844 136.437 223.997 137.562C225.15 138.687 226.964 139.25 229.439 139.25H233.489V134.356H229.861C229.214 134.356 228.736 134.173 228.427 133.808C228.145 133.442 228.005 132.866 228.005 132.078V123.092H233.489V118.198H228.005V111.828Z" fill="#050B20"/>
<path d="M209.625 130.391C209.316 131.656 208.781 132.683 208.022 133.47C207.263 134.23 206.419 134.609 205.491 134.609H203.044C202.284 134.609 201.666 134.328 201.188 133.766C200.738 133.175 200.513 132.416 200.513 131.488V118.198H194.775V131.403C194.775 133.85 195.45 135.833 196.8 137.352C198.15 138.842 199.936 139.587 202.158 139.587H204.942C205.814 139.587 206.714 139.306 207.642 138.744C208.598 138.181 209.4 137.45 210.047 136.55V139.25H215.363V118.198H209.625V130.391Z" fill="#050B20"/>
<path d="M148.238 120.139C146.606 118.62 144.441 117.861 141.741 117.861H138.366C136.594 117.861 135.019 118.213 133.641 118.916C132.291 119.619 131.236 120.603 130.477 121.869C129.717 123.134 129.338 124.597 129.338 126.256V131.698C129.338 133.245 129.717 134.623 130.477 135.833C131.236 137.014 132.291 137.942 133.641 138.617C135.019 139.264 136.594 139.588 138.366 139.588H141.572C143.344 139.588 144.905 139.292 146.255 138.702C147.633 138.111 148.702 137.267 149.461 136.17C150.22 135.073 150.6 133.822 150.6 132.416H144.947C144.947 133.119 144.638 133.695 144.019 134.145C143.428 134.567 142.641 134.778 141.656 134.778H138.366C137.353 134.778 136.552 134.497 135.961 133.934C135.37 133.372 135.075 132.627 135.075 131.698V130.686H150.684V126.214C150.684 123.683 149.869 121.658 148.238 120.139ZM145.031 126.552H134.991V126.425C134.991 125.272 135.3 124.344 135.919 123.641C136.538 122.938 137.353 122.586 138.366 122.586H141.783C142.767 122.586 143.555 122.923 144.145 123.598C144.736 124.245 145.031 125.117 145.031 126.214V126.552Z" fill="#050B20"/>
<path d="M118.092 117.861H115.477C114.633 117.861 113.747 118.086 112.819 118.536C111.919 118.986 111.159 119.577 110.541 120.308V109.719H104.803V139.25H110.541V126.72C110.794 125.567 111.3 124.639 112.059 123.936C112.847 123.205 113.733 122.839 114.717 122.839H117.333C118.064 122.839 118.655 123.106 119.105 123.641C119.583 124.175 119.822 124.878 119.822 125.75V139.25H125.559V125.539C125.559 123.233 124.87 121.377 123.492 119.97C122.142 118.564 120.342 117.861 118.092 117.861Z" fill="#050B20"/>
<path d="M178.622 109.719H176.006L164.447 139.25H170.522L173.138 132.373H184.191L186.764 139.25H192.839L182.334 112.25C181.688 110.562 180.45 109.719 178.622 109.719ZM174.698 127.48L178.664 116.848H178.706L182.63 127.48H174.698Z" fill="#050B20"/>
<path d="M94.8211 133.681C94.2868 134.328 93.5696 134.652 92.6696 134.652H89.4211C88.4368 134.652 87.6352 134.3 87.0165 133.597C86.3977 132.866 86.0883 131.923 86.0883 130.77V126.678C86.0883 125.525 86.3836 124.597 86.9743 123.894C87.593 123.163 88.3946 122.797 89.379 122.797H92.6274C93.4711 122.797 94.1461 123.092 94.6524 123.683C95.1868 124.245 95.454 125.005 95.454 125.961H101.149C101.149 124.358 100.798 122.952 100.095 121.742C99.3915 120.505 98.393 119.548 97.0993 118.873C95.8055 118.198 94.3149 117.861 92.6274 117.861H89.2946C87.5227 117.861 85.9618 118.213 84.6118 118.916C83.2618 119.619 82.2071 120.603 81.4477 121.869C80.7165 123.134 80.3508 124.597 80.3508 126.256V131.192C80.3508 132.852 80.7165 134.314 81.4477 135.58C82.2071 136.845 83.2618 137.83 84.6118 138.533C85.9899 139.236 87.5649 139.588 89.3368 139.588H92.6696C95.2852 139.588 97.3805 138.814 98.9555 137.267C100.559 135.72 101.36 133.667 101.36 131.108H95.6649C95.6649 132.177 95.3836 133.034 94.8211 133.681Z" fill="#050B20"/>
</svg>
