<svg width="14" height="15" viewBox="0 0 14 15" fill="none" xmlns="http://www.w3.org/2000/svg">
<path d="M7.37362 4.0957C9.21933 4.0957 10.7428 5.61914 10.7428 7.46484C10.7428 9.33984 9.21933 10.834 7.37362 10.834C5.49862 10.834 4.00448 9.33984 4.00448 7.46484C4.00448 5.61914 5.49862 4.0957 7.37362 4.0957ZM7.37362 9.66211C8.5748 9.66211 9.54159 8.69531 9.54159 7.46484C9.54159 6.26367 8.5748 5.29688 7.37362 5.29688C6.14316 5.29688 5.17636 6.26367 5.17636 7.46484C5.17636 8.69531 6.17245 9.66211 7.37362 9.66211ZM11.651 3.97852C11.651 4.41797 11.2994 4.76953 10.86 4.76953C10.4205 4.76953 10.0689 4.41797 10.0689 3.97852C10.0689 3.53906 10.4205 3.1875 10.86 3.1875C11.2994 3.1875 11.651 3.53906 11.651 3.97852ZM13.8775 4.76953C13.9361 5.85352 13.9361 9.10547 13.8775 10.1895C13.8189 11.2441 13.5846 12.1523 12.8228 12.9434C12.0611 13.7051 11.1236 13.9395 10.0689 13.998C8.98495 14.0566 5.733 14.0566 4.64902 13.998C3.59433 13.9395 2.68612 13.7051 1.89511 12.9434C1.13339 12.1523 0.899015 11.2441 0.840422 10.1895C0.781828 9.10547 0.781828 5.85352 0.840422 4.76953C0.899015 3.71484 1.13339 2.77734 1.89511 2.01562C2.68612 1.25391 3.59433 1.01953 4.64902 0.960938C5.733 0.902344 8.98495 0.902344 10.0689 0.960938C11.1236 1.01953 12.0611 1.25391 12.8228 2.01562C13.5846 2.77734 13.8189 3.71484 13.8775 4.76953ZM12.4713 11.332C12.8228 10.4824 12.735 8.43164 12.735 7.46484C12.735 6.52734 12.8228 4.47656 12.4713 3.59766C12.2369 3.04102 11.7975 2.57227 11.2408 2.36719C10.3619 2.01562 8.31112 2.10352 7.37362 2.10352C6.40683 2.10352 4.35605 2.01562 3.50644 2.36719C2.9205 2.60156 2.48105 3.04102 2.24667 3.59766C1.89511 4.47656 1.983 6.52734 1.983 7.46484C1.983 8.43164 1.89511 10.4824 2.24667 11.332C2.48105 11.918 2.9205 12.3574 3.50644 12.5918C4.35605 12.9434 6.40683 12.8555 7.37362 12.8555C8.31112 12.8555 10.3619 12.9434 11.2408 12.5918C11.7975 12.3574 12.2662 11.918 12.4713 11.332Z" fill="white"/>
<a href="https://www.figma.com/design/PzQUNVEIeMrv8HjdXbjYra?node-id=14-4098">
<rect fill="black" fill-opacity="0" x="0.178312" y="-1.125" width="13.125" height="17.25"/>
</a>
</svg>
