<!DOCTYPE svg PUBLIC "-//W3C//DTD SVG 1.1//EN" "http://www.w3.org/Graphics/SVG/1.1/DTD/svg11.dtd">

<svg width="64px" height="64px" viewBox="0 0 24 24" fill="none" xmlns="http://www.w3.org/2000/svg" stroke="#ffffff">

<g id="SVGRepo_bgCarrier" stroke-width="0"/>

<g id="SVGRepo_tracerCarrier" stroke-linecap="round" stroke-linejoin="round"/>

<g id="SVGRepo_iconCarrier"> <path d="M19.3438 3.94922C18.8477 3.49219 16.8399 2.03516 12.3633 2.01562C12.3633 2.01562 7.08595 1.69922 4.51563 4.05859C3.08595 5.48828 2.58204 7.58594 2.52735 10.1836C2.47267 12.7812 2.40626 17.6484 7.09766 18.9687H7.10157L7.09766 20.9844C7.09766 20.9844 7.06641 21.8008 7.60548 21.9648C8.25391 22.168 8.63673 21.5469 9.25782 20.8789C9.59766 20.5117 10.0664 19.9727 10.4219 19.5625C13.6328 19.832 16.0977 19.2148 16.3789 19.125C17.0274 18.9141 20.6953 18.4453 21.2891 13.5781C21.9063 8.55469 20.9922 5.38281 19.3438 3.94922ZM19.8867 13.2109C19.3828 17.2734 16.4102 17.5312 15.8633 17.707C15.6289 17.7812 13.4609 18.3203 10.7383 18.1445C10.7383 18.1445 8.70704 20.5937 8.07423 21.2305C7.8672 21.4375 7.64063 21.418 7.64454 21.0078C7.64454 20.7383 7.66016 17.6602 7.66016 17.6602C7.65626 17.6602 7.65626 17.6602 7.66016 17.6602C3.6836 16.5586 3.91798 12.4141 3.96095 10.2461C4.00392 8.07812 4.41407 6.30078 5.62501 5.10547C7.80079 3.13281 12.2813 3.42578 12.2813 3.42578C16.0664 3.44141 17.8789 4.58203 18.3008 4.96484C19.6953 6.16016 20.4063 9.01953 19.8867 13.2109ZM14.457 10.0547C14.4727 10.3906 13.9688 10.4141 13.9531 10.0781C13.9102 9.21875 13.5078 8.80078 12.6797 8.75391C12.3438 8.73437 12.375 8.23047 12.707 8.25C13.7969 8.30859 14.4024 8.93359 14.457 10.0547ZM15.25 10.4961C15.2891 8.83984 14.2539 7.54297 12.2891 7.39844C11.957 7.375 11.9922 6.87109 12.3242 6.89453C14.5899 7.05859 15.7969 8.61719 15.7539 10.5078C15.75 10.8438 15.2422 10.8281 15.25 10.4961ZM17.0859 11.0195C17.0899 11.3555 16.582 11.3594 16.582 11.0234C16.5586 7.83984 14.4375 6.10547 11.8633 6.08594C11.5313 6.08203 11.5313 5.58203 11.8633 5.58203C14.7422 5.60156 17.0586 7.58984 17.0859 11.0195ZM16.6445 14.8516V14.8594C16.2227 15.6016 15.4336 16.4219 14.6211 16.1602L14.6133 16.1484C13.7891 15.918 11.8477 14.918 10.6211 13.9414C9.98829 13.4414 9.41016 12.8516 8.96485 12.2852C8.56251 11.7812 8.15626 11.1836 7.76173 10.4648C6.9297 8.96094 6.7461 8.28906 6.7461 8.28906C6.48438 7.47656 7.30079 6.6875 8.04688 6.26562H8.0547C8.41407 6.07812 8.75782 6.14062 8.98829 6.41797C8.98829 6.41797 9.47267 6.99609 9.6797 7.28125C9.87501 7.54687 10.1367 7.97266 10.2734 8.21094C10.5117 8.63672 10.3633 9.07031 10.1289 9.25L9.66017 9.625C9.42188 9.81641 9.45313 10.1719 9.45313 10.1719C9.45313 10.1719 10.1484 12.8008 12.7461 13.4648C12.7461 13.4648 13.1016 13.4961 13.293 13.2578L13.668 12.7891C13.8477 12.5547 14.2813 12.4062 14.707 12.6445C15.2813 12.9687 16.0117 13.4727 16.4961 13.9297C16.7695 14.1523 16.832 14.4922 16.6445 14.8516Z" fill="#ffffff"/> </g>

</svg>