<svg width="15" height="14" viewBox="0 0 15 14" fill="none" xmlns="http://www.w3.org/2000/svg">
<path d="M7.54941 3.67578C9.39511 3.67578 10.9185 5.19922 10.9185 7.04492C10.9185 8.91992 9.39511 10.4141 7.54941 10.4141C5.67441 10.4141 4.18027 8.91992 4.18027 7.04492C4.18027 5.19922 5.67441 3.67578 7.54941 3.67578ZM7.54941 9.24219C8.75058 9.24219 9.71737 8.27539 9.71737 7.04492C9.71737 5.84375 8.75058 4.87695 7.54941 4.87695C6.31894 4.87695 5.35214 5.84375 5.35214 7.04492C5.35214 8.27539 6.34823 9.24219 7.54941 9.24219ZM11.8267 3.55859C11.8267 3.99805 11.4752 4.34961 11.0357 4.34961C10.5963 4.34961 10.2447 3.99805 10.2447 3.55859C10.2447 3.11914 10.5963 2.76758 11.0357 2.76758C11.4752 2.76758 11.8267 3.11914 11.8267 3.55859ZM14.0533 4.34961C14.1119 5.43359 14.1119 8.68555 14.0533 9.76953C13.9947 10.8242 13.7603 11.7324 12.9986 12.5234C12.2369 13.2852 11.2994 13.5195 10.2447 13.5781C9.16073 13.6367 5.90878 13.6367 4.8248 13.5781C3.77011 13.5195 2.86191 13.2852 2.07089 12.5234C1.30917 11.7324 1.0748 10.8242 1.0162 9.76953C0.957609 8.68555 0.957609 5.43359 1.0162 4.34961C1.0748 3.29492 1.30917 2.35742 2.07089 1.5957C2.86191 0.833984 3.77011 0.599609 4.8248 0.541016C5.90878 0.482422 9.16073 0.482422 10.2447 0.541016C11.2994 0.599609 12.2369 0.833984 12.9986 1.5957C13.7603 2.35742 13.9947 3.29492 14.0533 4.34961ZM12.6471 10.9121C12.9986 10.0625 12.9107 8.01172 12.9107 7.04492C12.9107 6.10742 12.9986 4.05664 12.6471 3.17773C12.4127 2.62109 11.9732 2.15234 11.4166 1.94727C10.5377 1.5957 8.48691 1.68359 7.54941 1.68359C6.58261 1.68359 4.53183 1.5957 3.68222 1.94727C3.09628 2.18164 2.65683 2.62109 2.42245 3.17773C2.07089 4.05664 2.15878 6.10742 2.15878 7.04492C2.15878 8.01172 2.07089 10.0625 2.42245 10.9121C2.65683 11.498 3.09628 11.9375 3.68222 12.1719C4.53183 12.5234 6.58261 12.4355 7.54941 12.4355C8.48691 12.4355 10.5377 12.5234 11.4166 12.1719C11.9732 11.9375 12.442 11.498 12.6471 10.9121Z" fill="#050B20"/>
<a href="https://www.figma.com/design/PzQUNVEIeMrv8HjdXbjYra?node-id=14-3180">
<rect fill="black" fill-opacity="0" x="0.178312" y="-1.125" width="13.125" height="17.25"/>
</a>
</svg>
