<svg width="15" height="15" viewBox="0 0 15 15" fill="none" xmlns="http://www.w3.org/2000/svg">
<path d="M14.1111 0.949951H5.55557C5.34061 0.949951 5.16667 1.12389 5.16667 1.33885C5.16667 1.55381 5.34061 1.72775 5.55557 1.72775H13.1723L0.613941 14.2862C0.46202 14.4381 0.46202 14.6842 0.613941 14.8361C0.689884 14.912 0.789415 14.95 0.88891 14.95C0.988405 14.95 1.0879 14.912 1.16388 14.8361L13.7222 2.27765V9.89442C13.7222 10.1094 13.8961 10.2833 14.1111 10.2833C14.3261 10.2833 14.5 10.1094 14.5 9.89442V1.33885C14.5 1.12389 14.326 0.949951 14.1111 0.949951Z" fill="#405FF2"/>
</svg>
