<svg width="15" height="15" viewBox="0 0 15 15" fill="none" xmlns="http://www.w3.org/2000/svg">
<path d="M14.283 0.969971H5.72745C5.51249 0.969971 5.33855 1.14391 5.33855 1.35887C5.33855 1.57383 5.51249 1.74777 5.72745 1.74777H13.3442L0.785816 14.3062C0.633895 14.4581 0.633895 14.7042 0.785816 14.8561C0.861759 14.932 0.96129 14.97 1.06079 14.97C1.16028 14.97 1.25978 14.932 1.33575 14.8561L13.8941 2.29767V9.91444C13.8941 10.1294 14.068 10.3033 14.283 10.3033C14.498 10.3033 14.6719 10.1294 14.6719 9.91444V1.35887C14.6719 1.14391 14.4979 0.969971 14.283 0.969971Z" fill="white"/>
</svg>
