<!DOCTYPE svg PUBLIC "-//W3C//DTD SVG 1.1//EN" "http://www.w3.org/Graphics/SVG/1.1/DTD/svg11.dtd">

<svg version="1.1" id="Layer_1" xmlns="http://www.w3.org/2000/svg" xmlns:xlink="http://www.w3.org/1999/xlink" viewBox="0 0 32 32" xml:space="preserve" width="64px" height="64px" fill="#050B20">

<g id="SVGRepo_bgCarrier" stroke-width="0"/>

<g id="SVGRepo_tracerCarrier" stroke-linecap="round" stroke-linejoin="round"/>

<g id="SVGRepo_iconCarrier"> <polyline style="fill:none;stroke:#050B20;stroke-width:2;stroke-miterlimit:10;" points="6,28 6,5 26,5 26,19 6,19 "/> <rect x="22" y="5" width="4" height="4"/> <rect x="19" y="15" width="3" height="4"/> <rect x="19" y="9" width="3" height="3"/> <rect x="13" y="15" width="3" height="4"/> <rect x="13" y="9" width="3" height="3"/> <rect x="6" y="15" width="4" height="4"/> <rect x="6" y="9" width="4" height="3"/> <rect x="22" y="12" width="4" height="3"/> <rect x="16" y="12" width="3" height="3"/> <rect x="10" y="12" width="3" height="3"/> <rect x="16" y="5" width="3" height="4"/> <rect x="10" y="5" width="3" height="4"/> </g>

</svg>