<svg width="16" height="23" viewBox="0 0 16 23" fill="none" xmlns="http://www.w3.org/2000/svg">
<path d="M12.3333 1.2373H3.66667C2.02325 1.2373 0.6875 2.57305 0.6875 4.21647V19.3831C0.6875 21.0266 2.02325 22.3623 3.66667 22.3623H12.3333C13.9768 22.3623 15.3125 21.0266 15.3125 19.3831V4.21647C15.3125 2.57305 13.9768 1.2373 12.3333 1.2373ZM13.6875 19.3831C13.6875 20.1296 13.0798 20.7373 12.3333 20.7373H3.66667C2.92025 20.7373 2.3125 20.1296 2.3125 19.3831V4.21647C2.3125 3.47005 2.92025 2.8623 3.66667 2.8623H12.3333C13.0798 2.8623 13.6875 3.47005 13.6875 4.21647V19.3831ZM9.89583 5.2998C9.89583 5.7483 9.53183 6.1123 9.08333 6.1123H6.91667C6.46817 6.1123 6.10417 5.7483 6.10417 5.2998C6.10417 4.8513 6.46817 4.4873 6.91667 4.4873H9.08333C9.53183 4.4873 9.89583 4.8513 9.89583 5.2998Z" fill="white"/>
</svg>
