<svg width="23" height="19" viewBox="0 0 23 19" fill="none" xmlns="http://www.w3.org/2000/svg">
<path d="M18.8938 1.40381H3.72722C2.0838 1.40381 0.748047 2.73955 0.748047 4.38297V15.2163C0.748047 16.8597 2.0838 18.1955 3.72722 18.1955H18.8938C20.5373 18.1955 21.873 16.8597 21.873 15.2163V4.38297C21.873 2.73955 20.5373 1.40381 18.8938 1.40381ZM18.8938 3.0288C18.9188 3.0288 18.9404 3.0418 18.9643 3.04289L12.123 8.17464C11.6442 8.53322 10.9758 8.53322 10.498 8.17464L3.6568 3.04289C3.68172 3.0418 3.7023 3.0288 3.72722 3.0288H18.8938ZM20.248 15.2163C20.248 15.9627 19.6403 16.5705 18.8938 16.5705H3.72722C2.9808 16.5705 2.37305 15.9627 2.37305 15.2163V4.38297C2.37305 4.29955 2.40663 4.22697 2.42072 4.14789L9.52305 9.47464C10.0495 9.86897 10.68 10.0661 11.3105 10.0661C11.941 10.0661 12.5726 9.86897 13.098 9.47464L20.2003 4.14789C20.2144 4.22697 20.248 4.29955 20.248 4.38297V15.2163Z" fill="white"/>
</svg>
