<svg width="18" height="19" viewBox="0 0 18 19" fill="none" xmlns="http://www.w3.org/2000/svg">
<g clip-path="url(#clip0_5_6187)">
<path d="M18 11.0999C18 13.1399 17.4 14.9599 16.2 16.5599C16.08 16.7199 15.92 16.8099 15.72 16.8299C15.52 16.8499 15.34 16.7999 15.18 16.6799C15.02 16.5599 14.93 16.4099 14.91 16.2299C14.89 16.0499 14.94 15.8799 15.06 15.7199C16.1 14.3599 16.62 12.8199 16.62 11.0999C16.62 9.73994 16.28 8.47994 15.6 7.31994C14.92 6.15994 13.99 5.23994 12.81 4.55994C11.63 3.87994 10.36 3.53994 9 3.53994C7.64 3.53994 6.37 3.87994 5.19 4.55994C4.01 5.23994 3.08 6.15994 2.4 7.31994C1.72 8.47994 1.38 9.73994 1.38 11.0999C1.38 12.8199 1.9 14.3599 2.94 15.7199C3.06 15.8799 3.11 16.0499 3.09 16.2299C3.07 16.4099 2.98 16.5599 2.82 16.6799C2.66 16.7999 2.48 16.8499 2.28 16.8299C2.08 16.8099 1.92 16.7199 1.8 16.5599C0.6 14.9599 0 13.1399 0 11.0999C0 9.49994 0.4 8.00994 1.2 6.62994C2 5.24994 3.09 4.15994 4.47 3.35994C5.85 2.55994 7.36 2.15994 9 2.15994C10.64 2.15994 12.15 2.55994 13.53 3.35994C14.91 4.15994 16 5.24994 16.8 6.62994C17.6 8.00994 18 9.49994 18 11.0999ZM13.44 6.89994C13.6 7.01994 13.68 7.17994 13.68 7.37994C13.68 7.57994 13.6 7.73994 13.44 7.85994L11.16 10.1999C11.36 10.5599 11.46 10.9399 11.46 11.3399C11.46 12.0199 11.22 12.5999 10.74 13.0799C10.26 13.5599 9.68 13.7999 9 13.7999C8.32 13.7999 7.74 13.5599 7.26 13.0799C6.78 12.5999 6.54 12.0199 6.54 11.3399C6.54 10.6599 6.78 10.0799 7.26 9.59994C7.74 9.11994 8.32 8.87994 9 8.87994C9.4 8.87994 9.78 8.97994 10.14 9.17994L12.48 6.89994C12.6 6.73994 12.76 6.65994 12.96 6.65994C13.16 6.65994 13.32 6.73994 13.44 6.89994ZM10.08 11.3399C10.08 11.0599 9.97 10.8199 9.75 10.6199C9.53 10.4199 9.28 10.3199 9 10.3199C8.72 10.3199 8.47 10.4199 8.25 10.6199C8.03 10.8199 7.92 11.0599 7.92 11.3399C7.92 11.6199 8.03 11.8699 8.25 12.0899C8.47 12.3099 8.72 12.4199 9 12.4199C9.28 12.4199 9.53 12.3099 9.75 12.0899C9.97 11.8699 10.08 11.6199 10.08 11.3399Z" fill="#050B20"/>
</g>
<defs>
<clipPath id="clip0_5_6187">
<rect width="18" height="18" fill="white" transform="matrix(1 0 0 -1 0 18.48)"/>
</clipPath>
</defs>
</svg>
