<svg width="16" height="23" viewBox="0 0 16 23" fill="none" xmlns="http://www.w3.org/2000/svg">
<path d="M12.3333 0.627441H3.66667C2.02325 0.627441 0.6875 1.96319 0.6875 3.60661V18.7732C0.6875 20.4167 2.02325 21.7524 3.66667 21.7524H12.3333C13.9768 21.7524 15.3125 20.4167 15.3125 18.7732V3.60661C15.3125 1.96319 13.9768 0.627441 12.3333 0.627441ZM13.6875 18.7732C13.6875 19.5197 13.0798 20.1274 12.3333 20.1274H3.66667C2.92025 20.1274 2.3125 19.5197 2.3125 18.7732V3.60661C2.3125 2.86019 2.92025 2.25244 3.66667 2.25244H12.3333C13.0798 2.25244 13.6875 2.86019 13.6875 3.60661V18.7732ZM9.89583 4.68994C9.89583 5.13844 9.53183 5.50244 9.08333 5.50244H6.91667C6.46817 5.50244 6.10417 5.13844 6.10417 4.68994C6.10417 4.24144 6.46817 3.87744 6.91667 3.87744H9.08333C9.53183 3.87744 9.89583 4.24144 9.89583 4.68994Z" fill="#050B20"/>
</svg>
