<svg width="19" height="19" viewBox="0 0 19 19" fill="none" xmlns="http://www.w3.org/2000/svg">
<g clip-path="url(#clip0_5_6196)">
<path d="M15.27 1.85998H14.61V1.19998C14.61 0.999981 14.54 0.829981 14.4 0.689981C14.26 0.54998 14.09 0.47998 13.89 0.47998C13.69 0.47998 13.52 0.54998 13.38 0.689981C13.24 0.829981 13.17 0.999981 13.17 1.19998V1.85998H6.33V1.19998C6.33 0.999981 6.26 0.829981 6.12 0.689981C5.98 0.54998 5.81 0.47998 5.61 0.47998C5.41 0.47998 5.24 0.54998 5.1 0.689981C4.96 0.829981 4.89 0.999981 4.89 1.19998V1.85998H4.23C3.59 1.85998 3.01 2.01998 2.49 2.33998C1.97 2.65998 1.55 3.07998 1.23 3.59998C0.91 4.11998 0.75 4.69998 0.75 5.33998V15C0.75 15.64 0.91 16.22 1.23 16.74C1.55 17.26 1.97 17.68 2.49 18C3.01 18.32 3.59 18.48 4.23 18.48H15.27C15.91 18.48 16.49 18.32 17.01 18C17.53 17.68 17.95 17.26 18.27 16.74C18.59 16.22 18.75 15.64 18.75 15V5.33998C18.75 4.69998 18.59 4.11998 18.27 3.59998C17.95 3.07998 17.53 2.65998 17.01 2.33998C16.49 2.01998 15.91 1.85998 15.27 1.85998ZM4.23 3.29998H4.89V4.61998C4.89 4.81998 4.96 4.98998 5.1 5.12998C5.24 5.26998 5.41 5.33998 5.61 5.33998C5.81 5.33998 5.98 5.26998 6.12 5.12998C6.26 4.98998 6.33 4.81998 6.33 4.61998V3.29998H13.17V4.61998C13.17 4.81998 13.24 4.98998 13.38 5.12998C13.52 5.26998 13.69 5.33998 13.89 5.33998C14.09 5.33998 14.26 5.26998 14.4 5.12998C14.54 4.98998 14.61 4.81998 14.61 4.61998V3.29998H15.27C15.83 3.29998 16.32 3.49998 16.74 3.89998C17.16 4.29998 17.37 4.77998 17.37 5.33998V5.99998H2.13V5.33998C2.13 4.77998 2.34 4.29998 2.76 3.89998C3.18 3.49998 3.67 3.29998 4.23 3.29998ZM15.27 17.1H4.23C3.67 17.1 3.18 16.89 2.76 16.47C2.34 16.05 2.13 15.56 2.13 15V7.43998H17.37V15C17.37 15.56 17.16 16.05 16.74 16.47C16.32 16.89 15.83 17.1 15.27 17.1ZM6.99 10.2C6.99 10.4 6.92 10.56 6.78 10.68C6.64 10.8 6.47 10.86 6.27 10.86H4.89C4.69 10.86 4.53 10.8 4.41 10.68C4.29 10.56 4.23 10.4 4.23 10.2C4.23 9.99998 4.29 9.82998 4.41 9.68998C4.53 9.54998 4.69 9.47998 4.89 9.47998H6.27C6.47 9.47998 6.64 9.54998 6.78 9.68998C6.92 9.82998 6.99 9.99998 6.99 10.2ZM15.27 10.2C15.27 10.4 15.21 10.56 15.09 10.68C14.97 10.8 14.81 10.86 14.61 10.86H13.23C13.03 10.86 12.86 10.8 12.72 10.68C12.58 10.56 12.51 10.4 12.51 10.2C12.51 9.99998 12.58 9.82998 12.72 9.68998C12.86 9.54998 13.03 9.47998 13.23 9.47998H14.61C14.81 9.47998 14.97 9.54998 15.09 9.68998C15.21 9.82998 15.27 9.99998 15.27 10.2ZM11.13 10.2C11.13 10.4 11.06 10.56 10.92 10.68C10.78 10.8 10.61 10.86 10.41 10.86H9.03C8.87 10.86 8.72 10.8 8.58 10.68C8.44 10.56 8.37 10.4 8.37 10.2C8.37 9.99998 8.44 9.82998 8.58 9.68998C8.72 9.54998 8.87 9.47998 9.03 9.47998H10.41C10.61 9.47998 10.78 9.54998 10.92 9.68998C11.06 9.82998 11.13 9.99998 11.13 10.2ZM6.99 14.34C6.99 14.54 6.92 14.71 6.78 14.85C6.64 14.99 6.47 15.06 6.27 15.06H4.89C4.69 15.06 4.53 14.99 4.41 14.85C4.29 14.71 4.23 14.54 4.23 14.34C4.23 14.14 4.29 13.97 4.41 13.83C4.53 13.69 4.69 13.62 4.89 13.62H6.27C6.47 13.62 6.64 13.69 6.78 13.83C6.92 13.97 6.99 14.14 6.99 14.34ZM15.27 14.34C15.27 14.54 15.21 14.71 15.09 14.85C14.97 14.99 14.81 15.06 14.61 15.06H13.23C13.03 15.06 12.86 14.99 12.72 14.85C12.58 14.71 12.51 14.54 12.51 14.34C12.51 14.14 12.58 13.97 12.72 13.83C12.86 13.69 13.03 13.62 13.23 13.62H14.61C14.81 13.62 14.97 13.69 15.09 13.83C15.21 13.97 15.27 14.14 15.27 14.34ZM11.13 14.34C11.13 14.54 11.06 14.71 10.92 14.85C10.78 14.99 10.61 15.06 10.41 15.06H9.03C8.87 15.06 8.72 14.99 8.58 14.85C8.44 14.71 8.37 14.54 8.37 14.34C8.37 14.14 8.44 13.97 8.58 13.83C8.72 13.69 8.87 13.62 9.03 13.62H10.41C10.61 13.62 10.78 13.69 10.92 13.83C11.06 13.97 11.13 14.14 11.13 14.34Z" fill="#050B20"/>
</g>
<defs>
<clipPath id="clip0_5_6196">
<rect width="18" height="18" fill="white" transform="matrix(1 0 0 -1 0.75 18.48)"/>
</clipPath>
</defs>
</svg>
