<svg width="27" height="35" viewBox="0 0 27 35" fill="none" xmlns="http://www.w3.org/2000/svg">
<path d="M20.5625 15.5323H19.6119C19.5049 15.533 19.3989 15.5125 19.3 15.4721C19.2009 15.4316 19.1109 15.3721 19.035 15.2967L16.8737 13.1355C16.3408 12.6025 15.7072 12.1808 15.0097 11.8949C14.3123 11.6089 13.565 11.4645 12.8113 11.4699H5.9375C4.86006 11.4699 3.82674 11.8979 3.06488 12.6597C2.30301 13.4216 1.875 14.4549 1.875 15.5323V19.5948C1.875 20.2413 2.13181 20.8613 2.58893 21.3185C3.04605 21.7755 3.66603 22.0323 4.3125 22.0323C4.3125 22.7866 4.61211 23.5099 5.14542 24.0432C5.67872 24.5765 6.40204 24.8761 7.15625 24.8761C7.91044 24.8761 8.63378 24.5765 9.16708 24.0432C9.70039 23.5099 10 22.7866 10 22.0323H15.7688C15.8586 22.7122 16.1924 23.3362 16.7081 23.7882C17.2238 24.2402 17.8861 24.4894 18.5719 24.4894C19.2576 24.4894 19.92 24.2402 20.4356 23.7882C20.9514 23.3362 21.2851 22.7122 21.375 22.0323H22.1875C22.834 22.0323 23.4539 21.7755 23.9111 21.3185C24.3682 20.8613 24.625 20.2413 24.625 19.5948C24.625 18.5174 24.197 17.4841 23.4351 16.7222C22.6732 15.9604 21.64 15.5323 20.5625 15.5323ZM12.8519 13.0948C13.3857 13.0939 13.9145 13.1982 14.4081 13.4017C14.9016 13.6053 15.3502 13.9041 15.7281 14.2811L16.9794 15.5323H6.945C6.79358 15.5334 6.64488 15.4921 6.51567 15.4132C6.38646 15.3342 6.28189 15.2207 6.21375 15.0855L5.27125 13.2005C5.48674 13.1319 5.71136 13.0963 5.9375 13.0948H12.8519ZM3.5 19.5948V15.5323C3.50044 15.0389 3.6506 14.5573 3.93063 14.1511L4.74313 15.7761C4.94243 16.1907 5.25496 16.5403 5.64459 16.7847C6.03422 17.0292 6.48505 17.1583 6.945 17.1573H11.625V20.4073H9.71561C9.48742 19.9214 9.12548 19.5103 8.67224 19.2225C8.219 18.9346 7.69319 18.7817 7.15625 18.7817C6.61931 18.7817 6.09347 18.9346 5.64023 19.2225C5.18699 19.5103 4.8251 19.9214 4.59687 20.4073H4.3125C4.09701 20.4073 3.89035 20.3218 3.73798 20.1694C3.5856 20.017 3.5 19.8103 3.5 19.5948ZM7.15625 22.8448C6.91521 22.8448 6.67957 22.7734 6.47915 22.6395C6.27873 22.5055 6.12251 22.3152 6.03027 22.0925C5.93803 21.8698 5.91389 21.6247 5.96092 21.3884C6.00795 21.1519 6.12402 20.9348 6.29447 20.7643C6.46491 20.5939 6.68207 20.4778 6.91848 20.4308C7.1549 20.3838 7.39995 20.4079 7.62264 20.5002C7.84534 20.5924 8.0357 20.7486 8.1696 20.9491C8.3035 21.1494 8.375 21.3851 8.375 21.6261C8.375 21.9494 8.24661 22.2594 8.01804 22.4879C7.78948 22.7164 7.47948 22.8448 7.15625 22.8448ZM18.5312 22.8448C18.2902 22.8448 18.0546 22.7734 17.8541 22.6395C17.6537 22.5055 17.4975 22.3152 17.4053 22.0925C17.313 21.8698 17.2889 21.6247 17.3359 21.3884C17.3829 21.1519 17.499 20.9348 17.6695 20.7643C17.8399 20.5939 18.0571 20.4778 18.2935 20.4308C18.5299 20.3838 18.7749 20.4079 18.9977 20.5002C19.2204 20.5924 19.4107 20.7486 19.5446 20.9491C19.6785 21.1494 19.75 21.3851 19.75 21.6261C19.75 21.9494 19.6216 22.2594 19.393 22.4879C19.1645 22.7164 18.8545 22.8448 18.5312 22.8448ZM22.1875 20.4073H21.0906C20.8624 19.9214 20.5005 19.5103 20.0472 19.2225C19.594 18.9346 19.0682 18.7817 18.5312 18.7817C17.9943 18.7817 17.4685 18.9346 17.0153 19.2225C16.562 19.5103 16.2001 19.9214 15.9719 20.4073H13.25V17.1573H20.5625C20.9033 17.1592 21.2398 17.2324 21.5505 17.3724C21.8612 17.5124 22.1391 17.7159 22.3662 17.9698H22.1875C21.972 17.9698 21.7654 18.0555 21.613 18.2078C21.4606 18.3602 21.375 18.5669 21.375 18.7823C21.375 18.9978 21.4606 19.2045 21.613 19.3569C21.7654 19.5093 21.972 19.5948 22.1875 19.5948H23C23 19.8103 22.9144 20.017 22.762 20.1694C22.6096 20.3218 22.403 20.4073 22.1875 20.4073Z" fill="#050B20"/>
</svg>
