<svg width="26" height="26" viewBox="0 0 26 26" fill="none" xmlns="http://www.w3.org/2000/svg">
<mask id="mask0_5_4074" style="mask-type:luminance" maskUnits="userSpaceOnUse" x="0" y="0" width="26" height="26">
<path d="M25.6478 0.341309H0.390625V25.5985H25.6478V0.341309Z" fill="white"/>
</mask>
<g mask="url(#mask0_5_4074)">
<path d="M23.2402 11.9205L18.8802 11.1935C18.6252 10.7794 18.1185 10.0304 17.3816 9.27998C15.9109 7.78216 14.2176 6.99048 12.4848 6.99048H5.38448C4.23114 6.99048 3.16181 7.61406 2.59377 8.61787L0.637178 12.0757C0.634021 12.0813 0.631653 12.0871 0.628644 12.0927C0.477299 12.3636 0.390625 12.6753 0.390625 13.007V16.6507C0.390625 17.0593 0.721927 17.3906 1.13058 17.3906H3.50046C3.84829 18.3007 4.73485 18.9495 5.77143 18.9495C6.80801 18.9495 7.69455 18.3007 8.04243 17.3906H17.2327C17.5805 18.3007 18.467 18.9495 19.5036 18.9495C20.5402 18.9495 21.4267 18.3007 21.7745 17.3906H24.9078C25.3165 17.3906 25.6478 17.0593 25.6478 16.6507V14.6918C25.6478 13.3037 24.6135 12.1144 23.2402 11.9205ZM17.0288 11.1264H11.6984V8.47041H12.4848C14.5822 8.47041 16.1662 10.021 17.0288 11.1264ZM6.75967 8.47041H10.2186V11.1264H6.75967V8.47041ZM3.88179 9.34669C4.17036 8.83672 4.69929 8.50934 5.27975 8.47398V11.1264H2.87475L3.88179 9.34669ZM5.77143 17.4696C5.24838 17.4696 4.82286 17.0512 4.82286 16.5369C4.82286 16.0226 5.24838 15.6041 5.77143 15.6041C6.29448 15.6041 6.72001 16.0226 6.72001 16.5369C6.72001 17.0512 6.29448 17.4696 5.77143 17.4696ZM19.5036 17.4696C18.9805 17.4696 18.555 17.0512 18.555 16.5369C18.555 16.0226 18.9806 15.6041 19.5036 15.6041C20.0266 15.6041 20.4522 16.0226 20.4522 16.5369C20.4522 17.0512 20.0266 17.4696 19.5036 17.4696ZM21.8486 15.9106C21.5703 14.8831 20.6246 14.1242 19.5036 14.1242C18.3825 14.1242 17.4369 14.8831 17.1585 15.9106H8.11641C7.83814 14.8831 6.89251 14.1242 5.77143 14.1242C4.65035 14.1242 3.70473 14.8831 3.42636 15.9106H1.87054V13.007C1.87054 12.786 2.05029 12.6063 2.27129 12.6063H18.3551L23.0065 13.382C23.0137 13.3832 23.0208 13.3843 23.028 13.3852C23.1538 13.4025 23.2736 13.4376 23.3851 13.4875C23.0756 13.5761 22.8487 13.8605 22.8487 14.1985C22.8487 14.6072 23.18 14.9385 23.5886 14.9385H24.1678V15.9107L21.8486 15.9106Z" fill="#050B20"/>
</g>
</svg>
